<svg xmlns="http://www.w3.org/2000/svg">

    <symbol id="Chi_sono" viewBox="0 0 492.81 540.84">
        <path d="M220.1,552.47c-9.74,0-15.06-8.22-16.77-11.45a5,5,0,0,1-.51-1.4L175.18,405.05l-.08-.29a12.06,12.06,0,0,1-.12-4.32,4.84,4.84,0,0,1,1.4-2.57c7-7,45.57-43.8,71.14-68.11l2.07-2a5.17,5.17,0,0,0,1-6.08L185.13,192.43a4.43,4.43,0,0,1-.28-.68c-.62-1.85-2.42-8-.92-13.28a22.28,22.28,0,0,1,4.88-8.82,5,5,0,0,1,1.19-1L229.09,146a5.24,5.24,0,0,1,1.37-.55l94.35-23a4.64,4.64,0,0,1,.92-.14c.33,0,.78,0,1.37,0,1.37,0,3,.09,4.95.25a15.82,15.82,0,0,1,7.14,2.64l.28.21.27.17,89.14,57.65a4.21,4.21,0,0,1,.48.35c2.58,2.15,7.17,7.49,1.73,15.33-1.72,2.48-3.64,3.58-6.21,3.58a15.44,15.44,0,0,1-6.33-1.65,5.14,5.14,0,0,1-.51-.29l-84.52-55.2a5.16,5.16,0,0,0-4.5-.56l-70.65,24.3a5.16,5.16,0,0,0-2.72,7.58l74,119.84c2.76,5.32,4.38,11.7,2.54,21.56a34.78,34.78,0,0,1-11.56,19.78L213.41,409.26a5.18,5.18,0,0,0-2.19,5.33l24.32,119.17c.39,2.46,1.78,15.31-10.52,18.12A21.57,21.57,0,0,1,220.1,552.47Z" transform="translate(-33.16 -23.38)" style="fill:none;stroke:#000;stroke-miterlimit:10;stroke-width:3px"/>
        <g id="Orange">
            <path d="M269.16,181.42s66.9,108.64,67,108.89c3,5,7.63,14.41,4.86,29a44.46,44.46,0,0,1-15.32,25.87L223.4,413.42a5.09,5.09,0,0,0-2.16,5.26l23.14,113.41s4.16,23.64-17.35,28.57c-21.28,4.88-30.83-13.52-32.44-17a5.16,5.16,0,0,1-.36-1.09l-27.8-135.39s-2.3-8.34,2.21-14.21c1.47-1.93,56.87-54.66,69.94-67.1a5.1,5.1,0,0,0,1-6L176.84,196a4.23,4.23,0,0,1-.23-.53c-.66-1.75-3.78-10.87-1.33-19.44a30.11,30.11,0,0,1,8.41-13.93,4.81,4.81,0,0,1,.83-.59l41.18-23.92a5.15,5.15,0,0,1,1.36-.54l95.62-23.32s1.85-.85,10.13-.15a24.77,24.77,0,0,1,11.68,4.33l.22.15,89.44,57.85a3.69,3.69,0,0,1,.4.29c1.83,1.46,14.57,12.51,3.93,27.83-9.5,13.68-24.91,4.34-24.91,4.34l-81.31-53.11a5.15,5.15,0,0,0-4.45-.55l-56,19.25A5.1,5.1,0,0,0,269.16,181.42Z" transform="translate(-33.16 -23.38)" style="fill:none;stroke:var(--Color_Main, orange);stroke-miterlimit:10;stroke-width:5.5px"/>
            <path d="M369.54,353.86,395.3,390.4a1.33,1.33,0,0,0,1.11.57L501,389.62h.17c1.47.18,21.22,3,22,24.5C524,435,508.65,441,506.71,441.64a1.76,1.76,0,0,1-.4.07l-111.46,2.2s-12.58-.2-16.51-1.53c-16.87-5.69-23.66-16-23.66-16l-26.75-36.32a1.34,1.34,0,0,1,.33-1.9c5.18-3.5,26.25-18,32.21-25.27,2.3-2.81,5.31-6.88,6.9-9.05A1.34,1.34,0,0,1,369.54,353.86Z" transform="translate(-33.16 -23.38)" style="fill:none;stroke:var(--Color_Main, orange);stroke-miterlimit:10;stroke-width:5.5px"/>
            <circle cx="112.95" cy="54.54" r="51.79" style="fill:none;stroke:var(--Color_Main, orange);stroke-miterlimit:10;stroke-width:5.5px"/>
            <path d="M155.31,239.71l21.16,38.89a1.15,1.15,0,0,1,.06,1c-.88,2.31-4.63,12-6.32,15.46-7.77,15.86-9.19,25.33-26.28,26.3-19.07,1.08-88,1.88-90.58,1.91H53.2c-1.25-.16-17-2.61-17.29-19.9-.25-18,19-19.28,19-19.28l79.3-1.89a1.18,1.18,0,0,0,1-.7l18-41.65A1.16,1.16,0,0,1,155.31,239.71Z" transform="translate(-33.16 -23.38)" style="fill:none;stroke:var(--Color_Main, orange);stroke-miterlimit:10;stroke-width:5.5px"/>
        </g>
    </symbol>

    <symbol id="Contenuti" viewBox="0 0 334.69 564.38">
        <g id="Lampadina">
            <g id="Raggi">
                <path d="M111.25,248,72.81,281.39c-7,5.65-15.1-4.88-7.86-10.19l42.18-28.64a3.45,3.45,0,0,1,4.2,5.45Z" transform="translate(-26.75 -26.55)" style="fill:var(--Color_Main, orange)"/>
                <path d="M88.89,155.45l-50-9.44c-8.77-2-5.58-14.83,3.18-12.47l48.53,15.23a3.45,3.45,0,0,1-1.63,6.69Z" transform="translate(-26.75 -26.55)" style="fill:var(--Color_Main, orange)"/>
                <path d="M145.83,81.42,121.42,36.74A6.51,6.51,0,1,1,133,31.24l19.06,47.2a3.45,3.45,0,0,1-6.22,2.94Z" transform="translate(-26.75 -26.55)" style="fill:var(--Color_Main, orange)"/>
                <path d="M284.29,242.56,326.4,271.2c7.24,5.36-.82,15.84-7.85,10.19L280.1,248a3.45,3.45,0,0,1,4.19-5.45Z" transform="translate(-26.75 -26.55)" style="fill:var(--Color_Main, orange)"/>
                <path d="M300.8,148.77l48.59-15.23c8.67-2.37,11.91,10.45,3.13,12.47l-50.1,9.44a3.45,3.45,0,0,1-1.62-6.69Z" transform="translate(-26.75 -26.55)" style="fill:var(--Color_Main, orange)"/>
                <path d="M239.31,78.47l19.06-47.2C262.05,23.14,274,28.7,270,36.78L245.46,81.42a3.45,3.45,0,0,1-6.21-3Z" transform="translate(-26.75 -26.55)" style="fill:var(--Color_Main, orange)"/>
            </g>
            <g id="Bulbo">
                <path d="M195.68,107.13a71.49,71.49,0,0,0-71.74,71.24c0,.23,0,.45,0,.67,0,11.74,2.08,17.14,2.08,17.14,6.51,22.69,18.11,26.9,23.09,39.4,7.24,18.23,7.78,36.76,8.4,42.31.75,6.72,2.29,6.66,38.16,6.66s37.43,0,38.16-6.66c.61-5.48,1.16-24,8.4-42.31,4.88-12.5,16.59-16.71,23.08-39.4,0,0,2.08-5.4,2.08-17.14a71.47,71.47,0,0,0-71-71.91h-.69" transform="translate(-26.75 -26.55)" style="fill:none;stroke:var(--Color_Main, orange);stroke-miterlimit:10;stroke-width:9.469650268554688px"/>
                <path d="M142.94,163.58a55,55,0,0,1,38.13-37.83" transform="translate(-26.75 -26.55)" style="fill:none;stroke:var(--Color_Main, orange);stroke-linecap:round;stroke-miterlimit:10;stroke-width:9.469650268554688px"/>
                <path d="M161.12,298.53c16.58,1.15,30.09.89,34.45.89h.21c4.38,0,17.9.26,34.45-.89" transform="translate(-26.75 -26.55)" style="fill:none;stroke:var(--Color_Main, orange);stroke-linecap:round;stroke-miterlimit:10;stroke-width:11.83706283569336px"/>
                <path d="M166.29,315.23h58.77" transform="translate(-26.75 -26.55)" style="fill:none;stroke:var(--Color_Main, orange);stroke-linecap:round;stroke-miterlimit:10;stroke-width:11.83706283569336px"/>
                <path d="M195.68,324.89c-23.84,0-25.84-.37-25.84,2.22,0,2.1,4.46,5.89,7.92,7.77,5.94,3.26,14.65,3.08,17.81,3.08h.21c3.16,0,11.86.2,17.9-3.08,3.45-1.88,7.93-5.67,7.93-7.77C221.52,324.52,219.52,324.88,195.68,324.89Z" transform="translate(-26.75 -26.55)" style="fill:var(--Color_Main, orange)"/>
            </g>
        </g>
        <g id="Scatola">
            <path d="M79.71,434.38l118.42,42.56-45.82,48.45a3.33,3.33,0,0,1-3.56.85L30.27,483.92a1.53,1.53,0,0,1-.53-2.56l50-47L190.65,387.7l118.8,46.15,49.16,48a1.11,1.11,0,0,1-.37,1.82L311.83,502v40l-112,46.28L77.62,542l-.78-41.41" transform="translate(-26.75 -26.55)" style="fill:none;stroke:#000;stroke-miterlimit:10;stroke-width:5px"/>
            <line x1="171.37" y1="450.38" x2="172.07" y2="561.31" style="fill:none;stroke:#000;stroke-miterlimit:10;stroke-width:5px"/>
            <line x1="171.37" y1="450.38" x2="283" y2="407.48" style="fill:none;stroke:#000;stroke-miterlimit:10;stroke-width:5px"/>
            <path d="M199.81,476.29l42,48.54a3.49,3.49,0,0,0,3.82,1L311.83,502" transform="translate(-26.75 -26.55)" style="fill:none;stroke:#000;stroke-miterlimit:10;stroke-width:5px"/>
            <line x1="163.89" y1="361.15" x2="164.25" y2="447.51" style="fill:none;stroke:#000;stroke-miterlimit:10;stroke-width:4px"/>
        </g>
    </symbol>

    <symbol id="Scopo" viewBox="0 0 423.29 379.18">
        <g id="Ingranaggi">
            <g id="Grande">
                <path d="M281.77,126.07c-4.63,3.71-9.27,7.78-15.07,9.33l-5.61-12.72a22.4,22.4,0,0,1,8.17-3.22,64.1,64.1,0,0,1,8.78-1.67Z" transform="translate(-27.17 -11.94)" style="fill:var(--Color_Main, orange)"/>
                <path d="M281.14,157.36c-5.93-.15-12.13,0-17.54-2.54l3.82-13.28a23,23,0,0,1,8.33,2.77,63.91,63.91,0,0,1,7.87,4.42l-2.48,8.63Z" transform="translate(-27.17 -11.94)" style="fill:var(--Color_Main, orange)"/>
                <path d="M260.63,181c-4.46-3.87-9.28-7.68-11.84-13.22l11.5-7.71a23.27,23.27,0,0,1,4.59,7.48,63.25,63.25,0,0,1,3.18,8.56l-7.42,5Z" transform="translate(-27.17 -11.94)" style="fill:var(--Color_Main, orange)"/>
                <path d="M229.73,185.84c-.84-5.87-2.12-11.93-.56-17.73l13.74,1.49a23.11,23.11,0,0,1-1.31,8.68,66.19,66.19,0,0,1-3,8.52l-8.91-1Z" transform="translate(-27.17 -11.94)" style="fill:var(--Color_Main, orange)"/>
                <path d="M202.9,169.74c3.1-5.09,6.07-10.5,11-14l9.58,9.9a22.94,22.94,0,0,1-6.58,5.83,63.29,63.29,0,0,1-7.77,4.61l-6.22-6.46Z" transform="translate(-27.17 -11.94)" style="fill:var(--Color_Main, orange)"/>
                <path d="M192.73,140.16c5.63-1.91,11.4-4.14,17.36-3.64l.94,13.82a23.16,23.16,0,0,1-8.78.22,67,67,0,0,1-8.91-1.47Z" transform="translate(-27.17 -11.94)" style="fill:var(--Color_Main, orange)"/>
                <path d="M203.94,110.94c5.54,2.16,11.39,4.16,15.63,8.4l-8.16,11.16a22.86,22.86,0,0,1-6.87-5.49,62.66,62.66,0,0,1-5.87-6.84l5.27-7.25Z" transform="translate(-27.17 -11.94)" style="fill:var(--Color_Main, orange)"/>
                <path d="M231.3,95.8c2.86,5.2,6,10.41,6.59,16.45l-13.43,3.33a23.19,23.19,0,0,1-1.75-8.61,64.37,64.37,0,0,1-.09-9l8.7-2.15Z" transform="translate(-27.17 -11.94)" style="fill:var(--Color_Main, orange)"/>
                <path d="M262,101.77c-1.17,5.82-2.12,11.93-5.55,16.84L244,112.52a23.24,23.24,0,0,1,4.21-7.72,65.28,65.28,0,0,1,5.76-7l8.05,3.94Z" transform="translate(-27.17 -11.94)" style="fill:var(--Color_Main, orange)"/>
                <circle cx="211.25" cy="129.15" r="28.13" style="fill:none;stroke:var(--Color_Main, orange);stroke-linecap:round;stroke-miterlimit:10;stroke-width:13px"/>
            </g>
            <g id="Piccolo">
                <circle cx="155.73" cy="182.71" r="16.89" style="fill:none;stroke:var(--Color_Main, orange);stroke-miterlimit:10;stroke-width:10px"/>
                <path d="M196.12,169.86a32.08,32.08,0,0,1-2,10.93L183.39,177a32.31,32.31,0,0,1,5.36-9.78l7.45,2.63Z" transform="translate(-27.17 -11.94)" style="fill:var(--Color_Main, orange)"/>
                <path d="M210.8,189.76A32.43,32.43,0,0,1,201,195l-3.79-10.73a32.2,32.2,0,0,1,11-2l2.6,7.49Z" transform="translate(-27.17 -11.94)" style="fill:var(--Color_Main, orange)"/>
                <path d="M204.34,213.6a32.61,32.61,0,0,1-10.19-4.44l6.09-9.6a32.77,32.77,0,0,1,8.35,7.35Z" transform="translate(-27.17 -11.94)" style="fill:var(--Color_Main, orange)"/>
                <path d="M181.67,223.39a32,32,0,0,1-2.86-10.73l11.27-1.21a31.76,31.76,0,0,1-.66,11.12l-7.86.83Z" transform="translate(-27.17 -11.94)" style="fill:var(--Color_Main, orange)"/>
                <path d="M159.88,211.75a32.11,32.11,0,0,1,6.63-8.93l7.92,8.08a32.42,32.42,0,0,1-9,6.5l-5.57-5.65Z" transform="translate(-27.17 -11.94)" style="fill:var(--Color_Main, orange)"/>
                <path d="M155.43,187.46a31.53,31.53,0,0,1,11.21-.39l-1.38,11.26a31.81,31.81,0,0,1-10.68-3l.95-7.84Z" transform="translate(-27.17 -11.94)" style="fill:var(--Color_Main, orange)"/>
                <path d="M171.69,168.83a32.75,32.75,0,0,1,7.21,8.48l-9.68,5.89A32.06,32.06,0,0,1,165,173l6.75-4.17Z" transform="translate(-27.17 -11.94)" style="fill:var(--Color_Main, orange)"/>
            </g>
        </g>
        <g id="Nuvole">
            <path d="M138.61,114.36a1.61,1.61,0,0,1,.3-1.34C146.67,102.74,151,88.71,151,74.87a60.92,60.92,0,1,0-60.93,60.92c9.12,0,19.11-1.47,27-5a1.61,1.61,0,0,1,1.29,0l23.29,9.4a1.66,1.66,0,0,0,2.24-1.89Z" transform="translate(-27.17 -11.94)" style="fill:none;stroke:#000;stroke-miterlimit:10;stroke-width:4px"/>
            <path d="M171.36,265.91a1.67,1.67,0,0,1-1.18.72c-12.79,1.52-25.92,8.1-35.91,17.69a60.93,60.93,0,1,0,86.15,1.74c-6.32-6.58-14.3-12.76-22.29-15.95a1.62,1.62,0,0,1-.92-.91l-9.36-23.31a1.65,1.65,0,0,0-2.9-.3Z" transform="translate(-27.17 -11.94)" style="fill:none;stroke:#000;stroke-miterlimit:10;stroke-width:4px"/>
            <path d="M325.07,189.19a1.63,1.63,0,0,1,.58,1.25c0,12.88,5,26.7,13.35,37.73a60.92,60.92,0,1,0,11.84-85.34c-7.27,5.5-14.35,12.7-18.46,20.27a1.63,1.63,0,0,1-1,.8l-24.25,6.56a1.65,1.65,0,0,0-.64,2.85Z" transform="translate(-27.17 -11.94)" style="fill:none;stroke:#000;stroke-miterlimit:10;stroke-width:4px"/>
            <text transform="translate(22.4 60.73)" style="font-size:62px;font-family:MyriadPro-Regular, Myriad Pro;letter-spacing:0.028005292338709676em">.....</text>
            <text transform="translate(109.15 309.38)" style="font-size:62px;font-family:MyriadPro-Regular, Myriad Pro;letter-spacing:0.028005292338709676em">.....</text>
            <text transform="translate(323.35 177.41)" style="font-size:62px;font-family:MyriadPro-Regular, Myriad Pro;letter-spacing:0.028005292338709676em">.....</text>
        </g>
    </symbol>

    <symbol id="Avventura_old" viewBox="0 0 471.52 283.94">
        <g id="Black" transform="scale(0.9,0.8)" transform-origin="center">
            <path id="Frontale_destra" data-name="Frontale destra" d="M395.63,150.38l118,279.84a.58.58,0,0,1-.54.8H467.85a.57.57,0,0,1-.52-.33L394.89,278.45a.54.54,0,0,1-.06-.25V150.54A.42.42,0,0,1,395.63,150.38Z" transform="translate(-43.71 -148.58)" style="fill:none;stroke:#000;stroke-miterlimit:10;stroke-width:3px"/>
            <line x1="232.04" y1="282.44" x2="352.63" y2="282.44" style="fill:none;stroke:#000;stroke-miterlimit:10;stroke-width:3px"/>
            <path id="Parete_laterale" data-name="Parete laterale" d="M45.24,430.71C49.63,423.42,129.61,289.47,161,151a.2.2,0,0,1,.2-.16l233.46-.75a.1.1,0,0,1,.1.13c-1.26,5-41.09,163.22-119.24,280.81H45.42A.21.21,0,0,1,45.24,430.71Z" transform="translate(-43.71 -148.58)" style="fill:none;stroke:#000;stroke-miterlimit:10;stroke-width:3px"/>
        </g>
        <g id="Orange" transform="scale(0.9,0.8)" transform-origin="center">
            <path d="M207.5,229h78.73a2.73,2.73,0,0,1,2.67,3.33c-1.76,7.86-7.34,28.05-20.65,43.11a6,6,0,0,1-4.53,2.06h-79a2.08,2.08,0,0,1-1.77-3.17c4.22-6.83,14-23.76,19.27-41.39A5.47,5.47,0,0,1,207.5,229Z" transform="translate(-43.71 -148.58)" style="fill:var(--Color_Main, orange);stroke:#000;stroke-miterlimit:10;stroke-width:3px"/>
            <path d="M394.42,430.11c-2-4.94-15.42-30.52-67.16-27.29l67.57-125.28V430.09C394.83,430.26,394.48,430.26,394.42,430.11Z" transform="translate(-43.71 -148.58)" style="fill:var(--Color_Main, orange);stroke:#000;stroke-miterlimit:10;stroke-width:3px"/>
        </g>
    </symbol>

    <symbol id="Avventura" viewBox="0 0 540.36 310.69">
        <g id="Black">
            <path d="M126.17,272.34l-2.59-2.74a2.86,2.86,0,0,1-.78-2v-.36a2.85,2.85,0,0,0-2.91-2.85l-12.06.24a2.85,2.85,0,0,0-2.79,2.85v5a2.88,2.88,0,0,0,.86,2l2.47,2.4a2.88,2.88,0,0,0,2,.8h5.78a2.85,2.85,0,0,1,2.85,2.86V290a2.86,2.86,0,0,0,.78,2l7,7.47a2.83,2.83,0,0,0,2.08.9h29.38a2.85,2.85,0,0,1,1.87.7l12.79,11.09a2.83,2.83,0,0,0,1.87.7h9.56a2.86,2.86,0,0,1,2.85,2.86v11a2.84,2.84,0,0,1-.71,1.89l-10.83,12.3a2.84,2.84,0,0,0-.71,1.88v8.91a2.87,2.87,0,0,1-.8,2l-24.81,25.66a2.86,2.86,0,0,0-.8,2v10.32a2.84,2.84,0,0,0,.73,1.91l3.57,4a2.85,2.85,0,0,1-2.12,4.76H140.64a2.83,2.83,0,0,1-2-.84l-10.83-10.89a2.87,2.87,0,0,1-.83-2V350.86a2.87,2.87,0,0,0-.81-2l-18.28-18.67a2.87,2.87,0,0,1-.81-2V313.7a2.87,2.87,0,0,1,.9-2.08l6-5.6a2.89,2.89,0,0,0,.9-2.09v-2.26a2.84,2.84,0,0,0-.73-1.91l-4.6-5.12a2.81,2.81,0,0,1-.74-1.91V289.6a2.84,2.84,0,0,0-2.74-2.85l-4.23-.17a2.81,2.81,0,0,1-2-1L70,251.26a2.85,2.85,0,0,1-.7-1.87V238.55a2.85,2.85,0,0,1,.65-1.81l4.89-6A2.85,2.85,0,0,0,75.5,229v-6.71a2.86,2.86,0,0,0-2.86-2.85H45.41a2.9,2.9,0,0,1-2-.8l-1.78-1.73a2.85,2.85,0,0,1-.88-2V204.28a2.85,2.85,0,0,1,.68-1.85l7.59-9a2.85,2.85,0,0,1,2.18-1h81.84a2.84,2.84,0,0,0,1.9-.73l6.07-5.45a2.85,2.85,0,0,1,3.91.09l4.34,4.27a2.86,2.86,0,0,1,0,4.09l-13.17,12.74a2.85,2.85,0,0,0,0,4.12l9.06,8.62c1.83,1.71,6,.79,6-1.78l-.18-8.67a2.86,2.86,0,0,1,2.86-2.91h17.83a2.85,2.85,0,0,1,2,.83l6.06,6.06a2.86,2.86,0,0,1,.84,2v12.86a2.86,2.86,0,0,1-2.85,2.85H166.45a2.86,2.86,0,0,0-2.85,2.86V240a2.86,2.86,0,0,1-2.85,2.85h-6.93a2.88,2.88,0,0,0-1.95.76l-20.19,18.73a2.87,2.87,0,0,0-.91,2.1v5.78a2.82,2.82,0,0,1-3.94,2.64,2.56,2.56,0,0,1-.66-.47" transform="translate(-10.67 -131.09)" style="fill:none;stroke:#1d1d1b;stroke-linejoin:round;stroke-width:3px"/>
            <path d="M168.83,179.08a2.86,2.86,0,0,1,2.86,2.86v3.69a2.85,2.85,0,0,1-4.83,2.06L163,184a2.86,2.86,0,0,1,2-4.92h3.84" transform="translate(-10.67 -131.09)" style="fill:none;stroke:#1d1d1b;stroke-linejoin:round;stroke-width:3px"/>
            <path d="M189.35,164.14h31.07a2.85,2.85,0,0,1,2.85,2.85v27.19a2.84,2.84,0,0,1-.85,2l-21.81,21.46a2.85,2.85,0,0,1-4.85-2v-9.13a2.86,2.86,0,0,0-.8-2l-16.72-17.33a2.82,2.82,0,0,1-.8-2v-11A2.86,2.86,0,0,1,178.5,172l9.06-7.28a2.88,2.88,0,0,1,1.79-.62" transform="translate(-10.67 -131.09)" style="fill:none;stroke:#1d1d1b;stroke-linejoin:round;stroke-width:3px"/>
            <path d="M255,223.29a2.24,2.24,0,0,1-2.28,2.26l-4.18-.08a2.24,2.24,0,0,1-1.75-3.6l4.14-5.44a2.24,2.24,0,0,1,4,1.34l0,5.52" transform="translate(-10.67 -131.09)" style="fill:none;stroke:#1d1d1b;stroke-linejoin:round;stroke-width:3px"/>
            <path d="M241.27,205.25c-2.14,0-3.8,2.26-3.72,5.08s1.7,4.91,3.84,4.83,3.69-2.26,3.57-4.95-1.66-5.08-3.69-5-3.8,2.26-3.72,5.08" transform="translate(-10.67 -131.09)" style="fill:none;stroke:#1d1d1b;stroke-linejoin:round;stroke-width:3px"/>
            <path d="M282,163.1a6,6,0,0,0-5.82,5.87A5.71,5.71,0,0,0,282,174.8a5.78,5.78,0,0,0,5.83-5.83A6,6,0,0,0,282,163.1a6,6,0,0,0-5.82,5.87" transform="translate(-10.67 -131.09)" style="fill:none;stroke:#1d1d1b;stroke-linejoin:round;stroke-width:3px"/>
            <path d="M330.84,367.08a5.1,5.1,0,0,0,5.1,5.1h.16a5.09,5.09,0,0,0,5.09-5.1V353a5.09,5.09,0,0,0-5.09-5.1h-.16a5.1,5.1,0,0,0-5.1,5.1v14.11" transform="translate(-10.67 -131.09)" style="fill:none;stroke:#1d1d1b;stroke-linejoin:round;stroke-width:3px"/>
            <path d="M418.28,329.7a2.84,2.84,0,0,1,0,4L415.09,337a2.85,2.85,0,0,1-4,.05l-14.55-14a2.83,2.83,0,0,1-.06-4l3.31-3.36a2.83,2.83,0,0,1,4,0l14.48,14.11" transform="translate(-10.67 -131.09)" style="fill:none;stroke:#1d1d1b;stroke-linejoin:round;stroke-width:3px"/>
            <path d="M491.93,409.24a5.09,5.09,0,0,0-.05,7.21l0,0a5.1,5.1,0,0,0,7.21,0l17.53-17.37a5.09,5.09,0,0,0,.07-7.17h0a5.1,5.1,0,0,0-7.23-.07l-17.57,17.32" transform="translate(-10.67 -131.09)" style="fill:none;stroke:#1d1d1b;stroke-linejoin:round;stroke-width:3px"/>
            <path d="M441.66,320.65a2.84,2.84,0,0,1-2.83,2.84H427.6a2.84,2.84,0,0,1-2.1-4.74l11.22-12.4a2.83,2.83,0,0,1,4.94,1.9v12.4" transform="translate(-10.67 -131.09)" style="fill:none;stroke:#1d1d1b;stroke-linejoin:round;stroke-width:3px"/>
            <path d="M451.89,293.75a1.81,1.81,0,0,0,.53,1.28l3.91,3.91a1.83,1.83,0,0,0,1.26.53l5,0a1.8,1.8,0,0,0,1.82-1.68l.07-1a1.83,1.83,0,0,0-.47-1.34L455,285.7a1.78,1.78,0,0,0-1.42-.59h0a1.81,1.81,0,0,0-1.73,1.81v6.83" transform="translate(-10.67 -131.09)" style="fill:none;stroke:#1d1d1b;stroke-linejoin:round;stroke-width:3px"/>
            <path d="M407.3,366.74l.16,21.05a2.83,2.83,0,0,0,3.83,2.63l19.8-7.4a2.84,2.84,0,0,1,3.73,1.92l.55,2.05a2.83,2.83,0,0,0,2.81,2.1l6.34-.15a2.83,2.83,0,0,1,1.89.66l1,.85a2.84,2.84,0,0,0,3.44.16l4.83-3.33a2.85,2.85,0,0,1,3.36.1l10.86,8.49a2.84,2.84,0,0,0,3.78-.26l4.29-4.42a2.79,2.79,0,0,0,.8-1.95L479,365.1a2.9,2.9,0,0,0-.67-1.85l-7.21-8.55a2.82,2.82,0,0,1-.67-1.75l-.17-5.83a2.85,2.85,0,0,0-.86-1.95L467,342.88a2.83,2.83,0,0,0-4.81,2l-.05,2.27a2.83,2.83,0,0,1-2.71,2.77l-4,.18a2.83,2.83,0,0,1-2.19-.88l-2.33-2.48a2.83,2.83,0,0,1-.77-1.76h0a2.84,2.84,0,0,0-4.82-1.84l-6.48,6.35a2.81,2.81,0,0,1-1.93.81l-13,.28a2.79,2.79,0,0,0-1.91.79l-13.83,13.33a2.82,2.82,0,0,0-.86,2.07" transform="translate(-10.67 -131.09)" style="fill:none;stroke:#1d1d1b;stroke-linejoin:round;stroke-width:3px"/>
            <path d="M270.64,213.54l-6-6a2.25,2.25,0,0,1,.06-3.24l17-15.77a2.26,2.26,0,0,1,1.52-.6H298.8a2.25,2.25,0,0,1,1.57.65l5.54,5.44a2.26,2.26,0,0,1,.67,1.6V208.6a2.24,2.24,0,0,0,.65,1.59l2.38,2.37a2.2,2.2,0,0,0,1.58.66h6.19a2.25,2.25,0,0,0,1.54-.61l16.91-16a2.22,2.22,0,0,1,1.52-.61l25.78-.23a2.17,2.17,0,0,0,1.49-.59l10.78-9.85a2.24,2.24,0,0,1,1.51-.59l59.55-.19a2.24,2.24,0,0,1,1.48.55l10.51,9.13a2.3,2.3,0,0,0,1.47.55l62,.07a2.24,2.24,0,0,1,1.58,3.83L497,215.26a2.25,2.25,0,0,1-1.59.66H454.91a2.25,2.25,0,0,0-1.52.59l-6.75,6.22a2.27,2.27,0,0,0-.72,1.59l-.06,2a2.2,2.2,0,0,0,.65,1.65l7.67,7.74a2.28,2.28,0,0,1,.65,1.58v22.17a2.27,2.27,0,0,1-.57,1.49l-10.8,12.09a2.27,2.27,0,0,0-.57,1.49v12.09a2.24,2.24,0,0,1-2.24,2.24H439.1a2.46,2.46,0,0,1-.72-.11l-11-3.67a2.24,2.24,0,0,0-2.09.36l-15.18,11.83a2.24,2.24,0,0,1-3.62-1.79l.08-10.56a2.26,2.26,0,0,0-.6-1.55l-6.15-6.64a2.24,2.24,0,0,0-3.22-.08l-12.07,11.9a2.29,2.29,0,0,0-.67,1.62l.07,9.41a2.25,2.25,0,0,1-3.9,1.54l-12.31-13.39a2.25,2.25,0,0,1-.59-1.54l.18-19.18a2.21,2.21,0,0,0-.66-1.61l-7.32-7.25a2.23,2.23,0,0,0-1.58-.65H332.64a2.22,2.22,0,0,0-1.53.61l-2.59,2.41a2.24,2.24,0,0,0-.13,3.14l4.66,5.19a2.23,2.23,0,0,0,3.19.14l2.78-2.58a2.24,2.24,0,0,1,3.14.09l3.78,3.9a2.24,2.24,0,0,1-.06,3.17L334,285.08a2.25,2.25,0,0,1-3.15,0L319.71,273.9a2.23,2.23,0,0,0-3.14,0l-2.29,2.21a2.24,2.24,0,0,0,0,3.19l18.32,18.61a2.24,2.24,0,0,0,1.6.67h.37a2.24,2.24,0,0,1,1.58,3.83l-5.51,5.49a2.23,2.23,0,0,0-.66,1.62l.22,18.45a2.27,2.27,0,0,1-.66,1.61l-14.06,14.1a2.24,2.24,0,0,0-.66,1.58v10.6a2.23,2.23,0,0,1-.65,1.58l-17.37,17.48a2.27,2.27,0,0,1-1.57.67l-8.62.06A2.25,2.25,0,0,1,285,375l-14.16-13a2.23,2.23,0,0,1-.73-1.66l.12-45.52a2.27,2.27,0,0,0-.63-1.56l-4.21-4.36a2.25,2.25,0,0,0-1.64-.69l-18,.18a2.22,2.22,0,0,1-1.6-.65l-14.66-14.51a2.27,2.27,0,0,1-.67-1.57l-.21-18a2.19,2.19,0,0,1,.67-1.62l14.09-13.88a2.22,2.22,0,0,1,1.56-.64l28.33-.12a2.27,2.27,0,0,1,1.39.48l8.21,6.38a2.17,2.17,0,0,0,1.39.47l22.44-.11a2.26,2.26,0,0,0,1.58-.65l4.57-4.57a2.25,2.25,0,0,0,.65-1.57l.05-4.54a2.24,2.24,0,0,0-2.24-2.27h-.8a2.23,2.23,0,0,1-1.5-.57l-2.69-2.4a2.24,2.24,0,0,1-.75-1.6h0a2.23,2.23,0,0,1,2.21-2.32l12.94-.18A2.24,2.24,0,0,0,323,241.7v-6.56a2.26,2.26,0,0,0-.62-1.56l-3.54-3.68a2.23,2.23,0,0,0-1.64-.69l-10.93.1a2.29,2.29,0,0,0-1.29.43l-5.75,4.15a2.23,2.23,0,0,0-.93,1.89l0,1.8a2.28,2.28,0,0,0,.58,1.43l.24.27a2.24,2.24,0,0,1-.11,3.13l-1.91,1.81a2.25,2.25,0,0,1-3.14,0l-9.25-9.26a2.24,2.24,0,0,0-3.15,0l-1.31,1.27a2.24,2.24,0,0,0-.06,3.15L290.31,250a2.24,2.24,0,0,1-.18,3.26l-2.34,2a2.24,2.24,0,0,1-3-.1L271.28,242a2.24,2.24,0,0,0-1.6-.63l-5.37.09a2.24,2.24,0,0,0-1.4.52l-8.78,7.31a2.21,2.21,0,0,1-1.39.52l-8.37.17a2.25,2.25,0,0,1-1.37-.43l-2.6-1.9a2.26,2.26,0,0,1-.92-1.79l-.09-8.73a2.26,2.26,0,0,1,2.26-2.27l10.07.06a2.24,2.24,0,0,0,1.55-.6l11.78-11a2.23,2.23,0,0,1,1.45-.6l14.57-.53a2.3,2.3,0,0,0,1.51-.66l13-13a2.24,2.24,0,0,0-.05-3.22l-4.8-4.51a2.24,2.24,0,0,0-3.06,0l-14,12.87a2.24,2.24,0,0,1-3.1-.05" transform="translate(-10.67 -131.09)" style="fill:none;stroke:#1d1d1b;stroke-linejoin:round;stroke-width:3px"/>
        </g>
        <g id="Orange">
            <rect x="5" y="5" width="530.36" height="300.69" rx="36.31" style="fill:none;stroke:var(--Color_Main, orange);stroke-miterlimit:10;stroke-width:10px"/>
        </g>
    </symbol>

</svg>