<?xml version="1.0" standalone="no"?>
<!DOCTYPE svg PUBLIC "-//W3C//DTD SVG 20010904//EN"
 "http://www.w3.org/TR/2001/REC-SVG-20010904/DTD/svg10.dtd">
<svg version="1.0" xmlns="http://www.w3.org/2000/svg"
 width="514.000000pt" height="561.000000pt" viewBox="0 0 514.000000 561.000000"
 preserveAspectRatio="xMidYMid meet">

<g transform="translate(0.000000,561.000000) scale(0.100000,-0.100000)"
fill="orange" stroke="none">
<path d="M1110 5515 c-138 -27 -265 -112 -346 -230 -54 -78 -94 -219 -94 -328
1 -223 153 -434 372 -519 74 -28 257 -28 340 0 156 52 272 162 342 322 34 79
45 209 27 316 -39 221 -204 394 -419 439 -86 18 -134 18 -222 0z m238 -70 c77
-18 112 -36 179 -89 51 -41 120 -134 141 -191 31 -86 41 -237 21 -324 -36
-157 -181 -304 -343 -347 -66 -18 -208 -18 -267 0 -131 40 -257 149 -306 264
-83 194 -37 436 108 573 116 110 297 154 467 114z"/>
<path d="M3009 4646 c-2 -3 -230 -57 -505 -120 l-501 -116 -214 -126 c-118
-70 -227 -138 -243 -153 -36 -33 -64 -96 -78 -181 -10 -57 -9 -76 6 -131 12
-40 135 -283 339 -668 176 -332 321 -612 321 -621 1 -10 -141 -147 -344 -333
-190 -174 -357 -335 -372 -358 -15 -23 -30 -62 -34 -87 -7 -46 -8 -40 107
-587 55 -263 138 -668 150 -735 24 -135 70 -218 152 -274 179 -124 382 -41
432 177 9 39 13 84 9 105 -3 20 -60 284 -125 586 -66 302 -118 555 -115 561 2
6 231 157 507 335 563 361 582 376 652 520 l42 85 0 115 c-1 99 -4 123 -26
175 -14 33 -182 304 -373 602 -192 298 -348 545 -348 549 0 5 138 54 305 110
l305 102 373 -255 c444 -303 441 -300 512 -314 229 -42 344 211 178 390 -65
70 -914 619 -985 638 -49 13 -118 17 -127 9z m156 -87 c22 -10 236 -146 475
-301 483 -315 485 -316 497 -430 7 -67 -11 -107 -63 -138 -43 -27 -128 -29
-176 -4 -17 9 -209 137 -426 285 -217 148 -402 269 -411 269 -9 0 -165 -50
-348 -112 -295 -101 -333 -116 -338 -136 -5 -19 66 -136 360 -593 201 -313
373 -589 381 -612 24 -66 29 -193 11 -258 -18 -60 -76 -157 -124 -204 -16 -16
-264 -181 -551 -365 -286 -184 -522 -342 -525 -350 -2 -8 52 -267 120 -575
138 -627 142 -661 99 -749 -15 -30 -40 -66 -57 -80 -84 -71 -226 -53 -307 39
-56 64 -53 56 -107 320 -19 94 -52 256 -74 360 -118 567 -161 783 -161 806 0
59 45 108 395 428 193 176 356 331 363 345 11 22 -13 70 -318 646 -182 342
-335 640 -340 663 -18 77 -12 167 14 223 24 51 28 54 238 179 l213 127 485
113 c267 62 501 117 520 123 44 12 103 5 155 -19z"/>
<path fill="black" d="M3025 4543 c-11 -2 -236 -54 -500 -115 l-480 -111 -180 -105 c-99
-57 -194 -115 -212 -129 -36 -26 -66 -86 -76 -150 -8 -46 7 -136 28 -169 56
-88 655 -1241 653 -1255 -2 -10 -160 -163 -352 -340 -374 -344 -389 -359 -411
-412 -16 -40 -18 -30 80 -502 30 -148 80 -396 111 -550 30 -154 63 -298 72
-319 26 -62 69 -115 119 -146 93 -59 183 -29 238 80 34 66 24 130 -114 740
-71 316 -127 578 -123 581 4 3 243 158 532 343 309 199 540 354 562 377 20 22
53 72 73 112 32 62 38 84 42 157 8 143 10 138 -415 792 -210 323 -382 591
-382 597 0 10 75 37 501 182 l276 94 411 -274 c226 -151 419 -282 428 -292 13
-14 31 -19 74 -19 49 0 60 4 84 28 54 57 42 133 -32 204 -20 19 -225 158 -454
307 -309 202 -431 276 -470 287 -29 7 -55 13 -58 13 -3 -1 -14 -3 -25 -6z
m110 -41 c64 -23 825 -520 884 -577 39 -39 45 -49 49 -98 4 -50 2 -55 -24 -76
-59 -46 -71 -41 -519 263 -225 153 -422 284 -436 291 -24 13 -53 5 -405 -115
-208 -72 -386 -134 -394 -139 -8 -5 -15 -19 -15 -32 0 -14 152 -257 373 -596
241 -370 380 -593 393 -630 17 -48 20 -76 16 -158 -4 -87 -8 -108 -34 -160
-17 -33 -48 -79 -69 -102 -24 -25 -244 -173 -571 -384 -298 -191 -533 -349
-533 -357 0 -8 59 -275 130 -593 72 -318 130 -596 130 -617 0 -69 -12 -103
-50 -143 -34 -36 -41 -39 -89 -39 -84 0 -141 42 -182 135 -12 27 -52 202 -90
390 -37 187 -89 439 -114 560 -61 294 -79 398 -72 426 8 33 50 74 440 432 185
171 337 316 337 321 0 6 -153 301 -340 655 -325 615 -340 647 -346 710 -5 53
-2 77 15 123 26 68 33 73 252 201 l165 97 490 114 c269 63 505 115 524 115 19
0 58 -8 85 -17z"/>
<path d="M1283 3412 c-18 -3 -32 -29 -79 -150 -31 -81 -71 -183 -88 -227 l-32
-80 -385 -7 c-219 -4 -407 -12 -438 -19 -72 -15 -139 -80 -171 -164 -22 -59
-22 -61 -5 -112 30 -89 95 -149 183 -168 17 -3 247 -1 510 5 505 13 520 14
567 63 11 12 32 37 44 55 24 34 161 337 161 355 0 10 -228 438 -239 448 -3 3
-16 3 -28 1z m120 -289 l87 -162 -61 -138 c-67 -151 -99 -205 -142 -237 -27
-20 -46 -21 -310 -28 -530 -12 -715 -10 -753 8 -109 52 -110 207 -2 279 l43
30 420 7 c325 7 423 11 433 21 7 8 47 101 88 208 42 106 78 197 81 202 7 12
17 -4 116 -190z"/>
<path d="M3414 2262 c-6 -4 -24 -32 -40 -62 -41 -76 -121 -152 -257 -243 -97
-65 -117 -82 -117 -103 0 -35 249 -362 339 -446 94 -87 179 -124 306 -132 50
-4 333 -1 631 7 530 13 541 14 588 36 77 38 125 101 152 204 33 126 -41 270
-172 337 -58 30 -69 30 -709 16 l-410 -8 -134 201 c-128 192 -147 213 -177
193z m163 -282 l118 -175 115 0 c63 0 309 4 545 8 l430 9 44 -24 c107 -57 154
-163 125 -278 -18 -68 -39 -98 -95 -132 l-44 -27 -510 -12 c-280 -6 -564 -10
-630 -8 -113 4 -125 6 -188 38 -91 44 -159 113 -305 307 l-120 162 90 57 c111
73 214 167 253 234 27 45 31 49 42 33 7 -9 65 -96 130 -192z"/>
</g>
</svg>
