<?xml version="1.0" standalone="no"?>
<!DOCTYPE svg PUBLIC "-//W3C//DTD SVG 20010904//EN"
 "http://www.w3.org/TR/2001/REC-SVG-20010904/DTD/svg10.dtd">
<svg version="1.0" xmlns="http://www.w3.org/2000/svg"
 width="476.000000pt" height="742.000000pt" viewBox="0 0 476.000000 742.000000"
 preserveAspectRatio="xMidYMid meet">

<g transform="translate(0.000000,742.000000) scale(0.100000,-0.100000)"
fill="orange" stroke="none">
<path d="M1588 7244 c-57 -30 -56 -41 28 -207 120 -237 197 -381 208 -390 20
-13 59 -3 66 18 7 19 -43 161 -95 272 -8 17 -15 34 -15 37 0 3 -9 25 -19 49
-11 23 -36 80 -56 127 -20 47 -40 88 -43 91 -16 16 -49 17 -74 3z"/>
<path d="M3122 7227 c-17 -8 -42 -53 -83 -147 -33 -74 -68 -153 -78 -175 -10
-22 -38 -86 -61 -142 -46 -112 -45 -133 9 -133 33 0 35 4 196 303 126 234 127
237 111 262 -10 14 -28 30 -42 35 -30 12 -24 12 -52 -3z"/>
<path d="M2215 6375 c-306 -56 -563 -283 -653 -576 -48 -156 -50 -353 -3 -489
26 -78 83 -188 126 -245 122 -160 160 -272 180 -540 8 -99 19 -136 49 -164 21
-20 40 -23 187 -32 175 -11 643 -8 671 5 36 16 50 60 74 225 36 249 61 315
174 466 138 184 189 321 190 511 0 239 -80 433 -250 605 -86 87 -105 101 -215
158 -159 81 -351 109 -530 76z m255 -110 c260 -21 502 -225 596 -500 25 -73
27 -93 27 -220 -1 -116 -5 -150 -22 -199 -29 -82 -81 -174 -149 -265 -32 -42
-67 -92 -79 -112 -51 -88 -96 -255 -113 -420 -6 -60 -15 -106 -23 -111 -6 -4
-97 -6 -202 -4 -104 2 -258 4 -342 5 -117 1 -155 4 -166 15 -9 10 -17 49 -21
113 -9 128 -40 276 -76 363 -16 38 -60 113 -98 167 -75 106 -109 167 -138 253
-25 73 -27 319 -2 395 68 216 217 384 417 471 138 59 189 66 391 49z"/>
<path d="M2126 6155 c-159 -56 -295 -183 -372 -348 -29 -63 -30 -98 -4 -122
37 -34 65 -14 109 78 68 141 158 225 309 288 42 17 80 37 84 43 15 22 8 55
-14 70 -29 20 -30 20 -112 -9z"/>
<path d="M597 6042 c-20 -22 -22 -85 -3 -101 7 -6 103 -29 212 -51 109 -22
232 -46 272 -55 123 -26 162 -15 148 39 -7 28 -14 31 -296 110 -91 26 -187 53
-214 61 -64 20 -99 19 -119 -3z"/>
<path d="M4070 6019 c-19 -5 -44 -11 -55 -13 -11 -3 -45 -11 -75 -20 -30 -8
-127 -33 -214 -56 -88 -23 -172 -48 -188 -56 -32 -17 -36 -44 -10 -68 19 -17
48 -14 292 29 14 3 90 16 170 30 163 29 187 42 176 100 -6 27 -39 67 -55 64
-3 -1 -22 -5 -41 -10z"/>
<path d="M1280 4797 c-63 -45 -164 -118 -225 -161 -138 -99 -155 -114 -155
-141 0 -34 37 -75 67 -75 21 0 96 49 123 80 3 3 45 39 95 80 205 170 265 228
265 256 0 21 -25 44 -47 44 -4 0 -60 -38 -123 -83z"/>
<path d="M3271 4833 c-10 -19 9 -66 33 -80 7 -4 47 -39 89 -76 41 -37 86 -77
98 -88 13 -11 38 -33 54 -47 119 -107 178 -152 200 -152 42 0 81 71 57 106 -4
6 -110 88 -235 183 -236 176 -272 195 -296 154z"/>
<path d="M1928 4280 c-21 -16 -28 -30 -28 -55 0 -57 23 -65 222 -75 216 -12
549 -12 607 -1 69 14 92 63 52 112 l-19 23 -308 2 c-170 0 -352 4 -404 8 -89
8 -97 7 -122 -14z"/>
<path d="M1971 4089 c-29 -31 -25 -76 9 -100 22 -17 58 -19 351 -25 179 -4
337 -4 352 -1 14 4 33 14 41 23 23 22 20 77 -5 100 -19 17 -45 19 -373 22
l-353 4 -22 -23z"/>
<path d="M2065 3920 c-16 -26 51 -89 126 -116 56 -20 247 -23 304 -4 57 19
108 53 125 84 12 24 12 28 0 36 -20 13 -547 13 -555 0z"/>
<path fill="black" d="M1542 2522 l-753 -308 -340 -322 c-259 -247 -339 -328 -339 -346 0
-27 -22 -18 400 -165 l255 -89 5 -258 c3 -157 9 -266 16 -277 7 -12 284 -122
813 -323 442 -168 811 -306 820 -306 22 -2 1471 600 1494 620 15 14 17 40 17
277 0 241 1 263 18 270 9 4 141 53 292 110 151 57 283 106 293 110 10 4 17 18
17 34 0 21 -61 87 -322 347 l-323 321 -801 307 c-440 168 -802 306 -805 306
-2 -1 -343 -139 -757 -308z m726 -551 l-3 -259 -672 237 c-369 130 -674 238
-677 241 -3 3 300 130 672 282 l677 276 3 -259 c1 -142 1 -376 0 -518z m804
498 c395 -151 718 -276 718 -279 0 -3 -310 -124 -689 -268 -686 -260 -689
-262 -728 -248 l-38 13 -3 533 c-2 424 0 531 10 528 7 -3 336 -128 730 -279z
m-1382 -619 c349 -123 638 -226 642 -229 11 -9 -549 -617 -564 -613 -39 10
-1564 546 -1571 552 -4 4 132 140 304 303 l312 295 121 -43 c67 -23 407 -143
756 -265z m2500 5 c278 -278 293 -295 269 -303 -13 -5 -344 -129 -735 -276
-391 -146 -716 -266 -722 -266 -12 0 -510 581 -514 600 -3 11 1357 538 1392
539 8 1 148 -132 310 -294z m-1812 -1313 l-3 -337 -765 290 -765 291 -3 237
c-1 131 2 237 6 237 5 0 216 -72 468 -160 252 -89 466 -159 476 -158 9 2 144
142 300 312 l283 310 3 -342 c1 -188 1 -494 0 -680z m341 696 c139 -164 259
-298 267 -298 8 0 206 72 441 160 234 88 430 160 435 160 4 0 7 -106 6 -236
l-3 -236 -710 -294 c-390 -162 -711 -294 -712 -294 -2 0 -3 307 -3 682 0 576
2 680 14 668 7 -8 127 -149 265 -312z"/>
</g>
</svg>
