<?xml version="1.0" standalone="no"?>
<!DOCTYPE svg PUBLIC "-//W3C//DTD SVG 20010904//EN"
 "http://www.w3.org/TR/2001/REC-SVG-20010904/DTD/svg10.dtd">
<svg version="1.0" xmlns="http://www.w3.org/2000/svg"
 width="624.000000pt" height="558.000000pt" viewBox="0 0 624.000000 558.000000"
 preserveAspectRatio="xMidYMid meet">

<g transform="translate(0.000000,558.000000) scale(0.100000,-0.100000)"
fill="black" stroke="none">
<path d="M847 5520 c-97 -16 -197 -50 -301 -103 -84 -43 -114 -65 -200 -151
-114 -114 -168 -197 -221 -339 -33 -91 -65 -249 -65 -323 0 -65 37 -235 70
-320 81 -214 269 -412 475 -502 219 -96 471 -104 691 -22 l74 28 185 -79 c177
-75 187 -78 210 -63 13 8 22 21 20 27 -2 7 -22 97 -45 200 l-41 189 50 77
c141 220 175 512 89 766 -84 245 -268 446 -499 545 -155 66 -345 93 -492 70z
m318 -77 c79 -18 201 -68 266 -109 110 -68 242 -211 298 -321 66 -132 92 -240
92 -390 1 -179 -40 -326 -127 -461 -30 -45 -54 -89 -54 -96 0 -7 16 -84 35
-172 19 -87 35 -164 35 -170 0 -7 -63 15 -152 53 -84 36 -163 68 -175 70 -13
3 -47 -4 -75 -15 -124 -48 -168 -56 -328 -56 -173 -1 -220 7 -345 62 -253 110
-438 342 -494 620 -15 75 -14 234 3 322 45 231 178 425 381 555 180 116 425
157 640 108z"/>
<path d="M450 4740 c-11 -11 -20 -27 -20 -35 0 -21 36 -55 58 -55 30 0 55 25
55 55 0 51 -56 72 -93 35z"/>
<path d="M667 4742 c-33 -36 -8 -92 40 -92 25 0 53 30 53 57 0 46 -62 69 -93
35z"/>
<path d="M877 4742 c-33 -36 -8 -92 40 -92 25 0 53 30 53 57 0 46 -62 69 -93
35z"/>
<path d="M1077 4742 c-33 -36 -8 -92 40 -92 25 0 53 30 53 57 0 46 -62 69 -93
35z"/>
<path d="M1287 4742 c-33 -36 -8 -92 40 -92 25 0 53 30 53 57 0 46 -62 69 -93
35z"/>
<path fill="orange" d="M2917 4312 l-38 -15 3 -83 c1 -46 -1 -86 -4 -90 -4 -3 -29 -21 -58
-39 l-51 -33 -76 34 c-87 37 -86 37 -135 -33 l-30 -44 58 -65 57 -66 -22 -69
c-21 -67 -23 -69 -64 -79 -99 -25 -112 -33 -115 -72 -5 -60 10 -101 41 -109
24 -6 96 -17 123 -18 11 -1 64 -111 64 -134 0 -6 -8 -20 -19 -31 -10 -12 -30
-41 -44 -66 l-26 -45 40 -43 c24 -25 49 -42 62 -41 12 0 49 17 82 38 l60 37
62 -30 c49 -24 63 -36 63 -54 0 -12 5 -51 12 -87 l12 -64 55 -7 c30 -4 61 -3
70 3 8 5 24 38 36 72 24 74 35 83 110 100 l56 13 60 -56 60 -56 32 17 c18 9
44 25 59 36 l26 20 -30 83 -30 83 42 51 c23 27 47 50 53 51 7 0 44 0 84 -1 82
-1 87 3 98 86 l7 50 -70 38 c-67 37 -70 39 -76 83 -9 64 -8 103 3 103 15 0
121 92 121 105 0 7 -10 36 -22 64 -19 48 -23 52 -47 46 -14 -4 -53 -11 -86
-16 l-60 -8 -49 48 -48 49 17 75 c10 41 15 82 12 90 -7 19 -78 57 -106 57 -12
0 -38 -23 -68 -61 l-47 -61 -66 7 c-36 4 -68 9 -73 12 -4 2 -23 36 -42 74 -33
65 -37 69 -68 68 -17 -1 -49 -8 -70 -17z m312 -353 c116 -51 181 -141 195
-272 14 -128 -103 -291 -230 -317 -131 -27 -213 -7 -302 76 -143 133 -122 370
41 483 88 60 202 72 296 30z"/>
<path d="M5155 3859 c-281 -42 -522 -193 -659 -414 -53 -84 -32 -74 -296 -140
-80 -20 -148 -42 -152 -48 -18 -29 1 -52 142 -171 125 -106 150 -131 154 -159
28 -193 37 -231 83 -341 54 -129 180 -288 298 -375 94 -68 234 -127 387 -161
83 -19 293 -8 383 20 172 54 289 122 400 234 87 87 129 146 183 256 67 135 87
228 85 395 -1 199 -29 293 -141 487 -36 64 -173 207 -242 255 -180 123 -437
190 -625 162z m325 -89 c294 -87 518 -308 596 -589 31 -111 35 -315 9 -431
-63 -274 -277 -506 -560 -607 -68 -24 -242 -44 -324 -37 -305 25 -546 182
-698 454 -44 78 -93 265 -93 352 0 25 -3 54 -6 63 -4 9 -66 66 -138 126 -72
61 -132 114 -133 117 -2 4 77 27 174 52 l176 45 51 81 c63 101 101 144 185
212 108 87 273 162 405 183 89 14 273 3 356 -21z"/>
<path d="M5205 3065 c-14 -13 -25 -29 -25 -35 0 -14 46 -60 60 -60 14 0 60 46
60 60 0 14 -46 60 -60 60 -6 0 -22 -11 -35 -25z"/>
<path d="M4780 3060 c-11 -11 -20 -27 -20 -35 0 -21 36 -55 58 -55 30 0 55 25
55 55 0 51 -56 72 -93 35z"/>
<path d="M4997 3062 c-33 -36 -8 -92 40 -92 25 0 53 30 53 57 0 46 -62 69 -93
35z"/>
<path d="M5407 3062 c-33 -36 -8 -92 40 -92 25 0 53 30 53 57 0 46 -62 69 -93
35z"/>
<path d="M5617 3062 c-33 -36 -8 -92 40 -92 25 0 53 30 53 57 0 46 -62 69 -93
35z"/>
<path fill="orange" d="M2364 3266 c-19 -38 -24 -41 -95 -51 -43 -6 -47 -5 -77 30 -37 41
-47 41 -110 -5 l-41 -29 15 -44 c15 -43 14 -45 -13 -90 -28 -45 -51 -57 -108
-57 -25 0 -34 -23 -37 -93 -1 -43 -4 -39 47 -59 35 -13 42 -22 58 -68 l18 -53
-26 -38 c-30 -43 -27 -54 28 -108 l35 -33 29 19 c44 31 59 33 105 16 60 -23
65 -28 72 -73 l6 -40 53 0 c66 0 85 14 93 65 3 22 7 40 7 40 1 1 22 14 46 29
45 29 45 29 89 13 51 -19 54 -18 92 34 32 45 30 65 -9 103 -27 26 -28 28 -17
84 11 51 16 59 50 77 35 19 37 22 32 57 -12 75 -23 88 -81 88 -46 0 -55 4 -89
39 -37 38 -38 41 -31 90 l7 50 -39 16 c-76 32 -90 31 -109 -9z m46 -211 c112
-71 113 -226 2 -312 -32 -24 -46 -28 -103 -28 -55 0 -72 4 -108 28 -81 53
-107 174 -55 254 59 90 173 115 264 58z"/>
<path d="M2233 2060 c-107 -161 -114 -169 -150 -175 -70 -11 -188 -47 -259
-80 -99 -45 -177 -101 -255 -182 -116 -120 -174 -216 -224 -369 -101 -308 -23
-654 203 -895 116 -124 222 -192 377 -242 126 -41 194 -50 318 -44 339 16 634
207 779 505 70 146 88 213 95 367 6 134 -3 203 -43 323 -77 232 -254 430 -484
543 l-55 27 -69 186 c-64 172 -83 207 -113 206 -4 0 -58 -77 -120 -170z m197
-100 c34 -91 67 -170 73 -176 7 -6 32 -19 57 -29 121 -51 266 -170 340 -280
118 -176 153 -289 154 -500 0 -109 -4 -154 -18 -205 -50 -171 -159 -341 -283
-442 -84 -69 -248 -149 -350 -172 -91 -20 -288 -21 -380 -2 -270 57 -509 263
-606 521 -45 120 -50 155 -51 305 -1 132 2 153 27 235 40 126 77 197 155 295
129 162 335 283 521 306 31 3 63 10 72 15 8 4 60 75 115 158 54 82 102 147
106 143 4 -4 34 -81 68 -172z"/>
<path d="M1700 1170 c-11 -11 -20 -27 -20 -35 0 -21 36 -55 58 -55 30 0 55 25
55 55 0 51 -56 72 -93 35z"/>
<path d="M1910 1170 c-11 -11 -20 -27 -20 -35 0 -21 36 -55 58 -55 30 0 55 25
55 55 0 51 -56 72 -93 35z"/>
<path d="M2125 1165 c-14 -13 -25 -29 -25 -35 0 -6 11 -22 25 -35 13 -14 29
-25 35 -25 6 0 22 11 35 25 14 13 25 29 25 35 0 14 -46 60 -60 60 -6 0 -22
-11 -35 -25z"/>
<path d="M2331 1171 c-12 -12 -21 -30 -21 -41 0 -11 9 -29 21 -41 22 -22 55
-19 77 9 39 50 -32 118 -77 73z"/>
<path d="M2530 1170 c-11 -11 -20 -27 -20 -35 0 -21 36 -55 58 -55 30 0 55 25
55 55 0 51 -56 72 -93 35z"/>
</g>
</svg>
