<svg xmlns="http://www.w3.org/2000/svg">

    <symbol id="Chi_sono" viewBox="0 0 492.81 540.84">
        <path d="M220.1,552.47c-9.74,0-15.06-8.22-16.77-11.45a5,5,0,0,1-.51-1.4L175.18,405.05l-.08-.29a12.06,12.06,0,0,1-.12-4.32,4.84,4.84,0,0,1,1.4-2.57c7-7,45.57-43.8,71.14-68.11l2.07-2a5.17,5.17,0,0,0,1-6.08L185.13,192.43a4.43,4.43,0,0,1-.28-.68c-.62-1.85-2.42-8-.92-13.28a22.28,22.28,0,0,1,4.88-8.82,5,5,0,0,1,1.19-1L229.09,146a5.24,5.24,0,0,1,1.37-.55l94.35-23a4.64,4.64,0,0,1,.92-.14c.33,0,.78,0,1.37,0,1.37,0,3,.09,4.95.25a15.82,15.82,0,0,1,7.14,2.64l.28.21.27.17,89.14,57.65a4.21,4.21,0,0,1,.48.35c2.58,2.15,7.17,7.49,1.73,15.33-1.72,2.48-3.64,3.58-6.21,3.58a15.44,15.44,0,0,1-6.33-1.65,5.14,5.14,0,0,1-.51-.29l-84.52-55.2a5.16,5.16,0,0,0-4.5-.56l-70.65,24.3a5.16,5.16,0,0,0-2.72,7.58l74,119.84c2.76,5.32,4.38,11.7,2.54,21.56a34.78,34.78,0,0,1-11.56,19.78L213.41,409.26a5.18,5.18,0,0,0-2.19,5.33l24.32,119.17c.39,2.46,1.78,15.31-10.52,18.12A21.57,21.57,0,0,1,220.1,552.47Z" transform="translate(-33.16 -23.38)" style="fill:none;stroke:#000;stroke-miterlimit:10;stroke-width:3px"/>
        <g id="Orange">
            <path d="M269.16,181.42s66.9,108.64,67,108.89c3,5,7.63,14.41,4.86,29a44.46,44.46,0,0,1-15.32,25.87L223.4,413.42a5.09,5.09,0,0,0-2.16,5.26l23.14,113.41s4.16,23.64-17.35,28.57c-21.28,4.88-30.83-13.52-32.44-17a5.16,5.16,0,0,1-.36-1.09l-27.8-135.39s-2.3-8.34,2.21-14.21c1.47-1.93,56.87-54.66,69.94-67.1a5.1,5.1,0,0,0,1-6L176.84,196a4.23,4.23,0,0,1-.23-.53c-.66-1.75-3.78-10.87-1.33-19.44a30.11,30.11,0,0,1,8.41-13.93,4.81,4.81,0,0,1,.83-.59l41.18-23.92a5.15,5.15,0,0,1,1.36-.54l95.62-23.32s1.85-.85,10.13-.15a24.77,24.77,0,0,1,11.68,4.33l.22.15,89.44,57.85a3.69,3.69,0,0,1,.4.29c1.83,1.46,14.57,12.51,3.93,27.83-9.5,13.68-24.91,4.34-24.91,4.34l-81.31-53.11a5.15,5.15,0,0,0-4.45-.55l-56,19.25A5.1,5.1,0,0,0,269.16,181.42Z" transform="translate(-33.16 -23.38)" style="fill:none;stroke:var(--main_color, orange);stroke-miterlimit:10;stroke-width:5.5px"/>
            <path d="M369.54,353.86,395.3,390.4a1.33,1.33,0,0,0,1.11.57L501,389.62h.17c1.47.18,21.22,3,22,24.5C524,435,508.65,441,506.71,441.64a1.76,1.76,0,0,1-.4.07l-111.46,2.2s-12.58-.2-16.51-1.53c-16.87-5.69-23.66-16-23.66-16l-26.75-36.32a1.34,1.34,0,0,1,.33-1.9c5.18-3.5,26.25-18,32.21-25.27,2.3-2.81,5.31-6.88,6.9-9.05A1.34,1.34,0,0,1,369.54,353.86Z" transform="translate(-33.16 -23.38)" style="fill:none;stroke:var(--main_color, orange);stroke-miterlimit:10;stroke-width:5.5px"/>
            <circle cx="112.95" cy="54.54" r="51.79" style="fill:none;stroke:var(--main_color, orange);stroke-miterlimit:10;stroke-width:5.5px"/>
            <path d="M155.31,239.71l21.16,38.89a1.15,1.15,0,0,1,.06,1c-.88,2.31-4.63,12-6.32,15.46-7.77,15.86-9.19,25.33-26.28,26.3-19.07,1.08-88,1.88-90.58,1.91H53.2c-1.25-.16-17-2.61-17.29-19.9-.25-18,19-19.28,19-19.28l79.3-1.89a1.18,1.18,0,0,0,1-.7l18-41.65A1.16,1.16,0,0,1,155.31,239.71Z" transform="translate(-33.16 -23.38)" style="fill:none;stroke:var(--main_color, orange);stroke-miterlimit:10;stroke-width:5.5px"/>
        </g>
    </symbol>

    <symbol id="Contenuti" viewBox="0 0 334.69 564.38">
        <g id="Lampadina">
            <g id="Raggi">
                <path d="M111.25,248,72.81,281.39c-7,5.65-15.1-4.88-7.86-10.19l42.18-28.64a3.45,3.45,0,0,1,4.2,5.45Z" transform="translate(-26.75 -26.55)" style="fill:var(--main_color, orange)"/>
                <path d="M88.89,155.45l-50-9.44c-8.77-2-5.58-14.83,3.18-12.47l48.53,15.23a3.45,3.45,0,0,1-1.63,6.69Z" transform="translate(-26.75 -26.55)" style="fill:var(--main_color, orange)"/>
                <path d="M145.83,81.42,121.42,36.74A6.51,6.51,0,1,1,133,31.24l19.06,47.2a3.45,3.45,0,0,1-6.22,2.94Z" transform="translate(-26.75 -26.55)" style="fill:var(--main_color, orange)"/>
                <path d="M284.29,242.56,326.4,271.2c7.24,5.36-.82,15.84-7.85,10.19L280.1,248a3.45,3.45,0,0,1,4.19-5.45Z" transform="translate(-26.75 -26.55)" style="fill:var(--main_color, orange)"/>
                <path d="M300.8,148.77l48.59-15.23c8.67-2.37,11.91,10.45,3.13,12.47l-50.1,9.44a3.45,3.45,0,0,1-1.62-6.69Z" transform="translate(-26.75 -26.55)" style="fill:var(--main_color, orange)"/>
                <path d="M239.31,78.47l19.06-47.2C262.05,23.14,274,28.7,270,36.78L245.46,81.42a3.45,3.45,0,0,1-6.21-3Z" transform="translate(-26.75 -26.55)" style="fill:var(--main_color, orange)"/>
            </g>
            <g id="Bulbo">
                <path d="M195.68,107.13a71.49,71.49,0,0,0-71.74,71.24c0,.23,0,.45,0,.67,0,11.74,2.08,17.14,2.08,17.14,6.51,22.69,18.11,26.9,23.09,39.4,7.24,18.23,7.78,36.76,8.4,42.31.75,6.72,2.29,6.66,38.16,6.66s37.43,0,38.16-6.66c.61-5.48,1.16-24,8.4-42.31,4.88-12.5,16.59-16.71,23.08-39.4,0,0,2.08-5.4,2.08-17.14a71.47,71.47,0,0,0-71-71.91h-.69" transform="translate(-26.75 -26.55)" style="fill:none;stroke:var(--main_color, orange);stroke-miterlimit:10;stroke-width:9.469650268554688px"/>
                <path d="M142.94,163.58a55,55,0,0,1,38.13-37.83" transform="translate(-26.75 -26.55)" style="fill:none;stroke:var(--main_color, orange);stroke-linecap:round;stroke-miterlimit:10;stroke-width:9.469650268554688px"/>
                <path d="M161.12,298.53c16.58,1.15,30.09.89,34.45.89h.21c4.38,0,17.9.26,34.45-.89" transform="translate(-26.75 -26.55)" style="fill:none;stroke:var(--main_color, orange);stroke-linecap:round;stroke-miterlimit:10;stroke-width:11.83706283569336px"/>
                <path d="M166.29,315.23h58.77" transform="translate(-26.75 -26.55)" style="fill:none;stroke:var(--main_color, orange);stroke-linecap:round;stroke-miterlimit:10;stroke-width:11.83706283569336px"/>
                <path d="M195.68,324.89c-23.84,0-25.84-.37-25.84,2.22,0,2.1,4.46,5.89,7.92,7.77,5.94,3.26,14.65,3.08,17.81,3.08h.21c3.16,0,11.86.2,17.9-3.08,3.45-1.88,7.93-5.67,7.93-7.77C221.52,324.52,219.52,324.88,195.68,324.89Z" transform="translate(-26.75 -26.55)" style="fill:var(--main_color, orange)"/>
            </g>
        </g>
        <g id="Scatola">
            <path d="M79.71,434.38l118.42,42.56-45.82,48.45a3.33,3.33,0,0,1-3.56.85L30.27,483.92a1.53,1.53,0,0,1-.53-2.56l50-47L190.65,387.7l118.8,46.15,49.16,48a1.11,1.11,0,0,1-.37,1.82L311.83,502v40l-112,46.28L77.62,542l-.78-41.41" transform="translate(-26.75 -26.55)" style="fill:none;stroke:#000;stroke-miterlimit:10;stroke-width:5px"/>
            <line x1="171.37" y1="450.38" x2="172.07" y2="561.31" style="fill:none;stroke:#000;stroke-miterlimit:10;stroke-width:5px"/>
            <line x1="171.37" y1="450.38" x2="283" y2="407.48" style="fill:none;stroke:#000;stroke-miterlimit:10;stroke-width:5px"/>
            <path d="M199.81,476.29l42,48.54a3.49,3.49,0,0,0,3.82,1L311.83,502" transform="translate(-26.75 -26.55)" style="fill:none;stroke:#000;stroke-miterlimit:10;stroke-width:5px"/>
            <line x1="163.89" y1="361.15" x2="164.25" y2="447.51" style="fill:none;stroke:#000;stroke-miterlimit:10;stroke-width:4px"/>
        </g>
    </symbol>

    <symbol id="Scopo" viewBox="0 0 423.29 379.18">
        <g id="Ingranaggi">
            <g id="Grande">
                <path d="M281.77,126.07c-4.63,3.71-9.27,7.78-15.07,9.33l-5.61-12.72a22.4,22.4,0,0,1,8.17-3.22,64.1,64.1,0,0,1,8.78-1.67Z" transform="translate(-27.17 -11.94)" style="fill:var(--main_color, orange)"/>
                <path d="M281.14,157.36c-5.93-.15-12.13,0-17.54-2.54l3.82-13.28a23,23,0,0,1,8.33,2.77,63.91,63.91,0,0,1,7.87,4.42l-2.48,8.63Z" transform="translate(-27.17 -11.94)" style="fill:var(--main_color, orange)"/>
                <path d="M260.63,181c-4.46-3.87-9.28-7.68-11.84-13.22l11.5-7.71a23.27,23.27,0,0,1,4.59,7.48,63.25,63.25,0,0,1,3.18,8.56l-7.42,5Z" transform="translate(-27.17 -11.94)" style="fill:var(--main_color, orange)"/>
                <path d="M229.73,185.84c-.84-5.87-2.12-11.93-.56-17.73l13.74,1.49a23.11,23.11,0,0,1-1.31,8.68,66.19,66.19,0,0,1-3,8.52l-8.91-1Z" transform="translate(-27.17 -11.94)" style="fill:var(--main_color, orange)"/>
                <path d="M202.9,169.74c3.1-5.09,6.07-10.5,11-14l9.58,9.9a22.94,22.94,0,0,1-6.58,5.83,63.29,63.29,0,0,1-7.77,4.61l-6.22-6.46Z" transform="translate(-27.17 -11.94)" style="fill:var(--main_color, orange)"/>
                <path d="M192.73,140.16c5.63-1.91,11.4-4.14,17.36-3.64l.94,13.82a23.16,23.16,0,0,1-8.78.22,67,67,0,0,1-8.91-1.47Z" transform="translate(-27.17 -11.94)" style="fill:var(--main_color, orange)"/>
                <path d="M203.94,110.94c5.54,2.16,11.39,4.16,15.63,8.4l-8.16,11.16a22.86,22.86,0,0,1-6.87-5.49,62.66,62.66,0,0,1-5.87-6.84l5.27-7.25Z" transform="translate(-27.17 -11.94)" style="fill:var(--main_color, orange)"/>
                <path d="M231.3,95.8c2.86,5.2,6,10.41,6.59,16.45l-13.43,3.33a23.19,23.19,0,0,1-1.75-8.61,64.37,64.37,0,0,1-.09-9l8.7-2.15Z" transform="translate(-27.17 -11.94)" style="fill:var(--main_color, orange)"/>
                <path d="M262,101.77c-1.17,5.82-2.12,11.93-5.55,16.84L244,112.52a23.24,23.24,0,0,1,4.21-7.72,65.28,65.28,0,0,1,5.76-7l8.05,3.94Z" transform="translate(-27.17 -11.94)" style="fill:var(--main_color, orange)"/>
                <circle cx="211.25" cy="129.15" r="28.13" style="fill:none;stroke:var(--main_color, orange);stroke-linecap:round;stroke-miterlimit:10;stroke-width:13px"/>
            </g>
            <g id="Piccolo">
                <circle cx="155.73" cy="182.71" r="16.89" style="fill:none;stroke:var(--main_color, orange);stroke-miterlimit:10;stroke-width:10px"/>
                <path d="M196.12,169.86a32.08,32.08,0,0,1-2,10.93L183.39,177a32.31,32.31,0,0,1,5.36-9.78l7.45,2.63Z" transform="translate(-27.17 -11.94)" style="fill:var(--main_color, orange)"/>
                <path d="M210.8,189.76A32.43,32.43,0,0,1,201,195l-3.79-10.73a32.2,32.2,0,0,1,11-2l2.6,7.49Z" transform="translate(-27.17 -11.94)" style="fill:var(--main_color, orange)"/>
                <path d="M204.34,213.6a32.61,32.61,0,0,1-10.19-4.44l6.09-9.6a32.77,32.77,0,0,1,8.35,7.35Z" transform="translate(-27.17 -11.94)" style="fill:var(--main_color, orange)"/>
                <path d="M181.67,223.39a32,32,0,0,1-2.86-10.73l11.27-1.21a31.76,31.76,0,0,1-.66,11.12l-7.86.83Z" transform="translate(-27.17 -11.94)" style="fill:var(--main_color, orange)"/>
                <path d="M159.88,211.75a32.11,32.11,0,0,1,6.63-8.93l7.92,8.08a32.42,32.42,0,0,1-9,6.5l-5.57-5.65Z" transform="translate(-27.17 -11.94)" style="fill:var(--main_color, orange)"/>
                <path d="M155.43,187.46a31.53,31.53,0,0,1,11.21-.39l-1.38,11.26a31.81,31.81,0,0,1-10.68-3l.95-7.84Z" transform="translate(-27.17 -11.94)" style="fill:var(--main_color, orange)"/>
                <path d="M171.69,168.83a32.75,32.75,0,0,1,7.21,8.48l-9.68,5.89A32.06,32.06,0,0,1,165,173l6.75-4.17Z" transform="translate(-27.17 -11.94)" style="fill:var(--main_color, orange)"/>
            </g>
        </g>
        <g id="Nuvole">
            <path d="M138.61,114.36a1.61,1.61,0,0,1,.3-1.34C146.67,102.74,151,88.71,151,74.87a60.92,60.92,0,1,0-60.93,60.92c9.12,0,19.11-1.47,27-5a1.61,1.61,0,0,1,1.29,0l23.29,9.4a1.66,1.66,0,0,0,2.24-1.89Z" transform="translate(-27.17 -11.94)" style="fill:none;stroke:#000;stroke-miterlimit:10;stroke-width:4px"/>
            <path d="M171.36,265.91a1.67,1.67,0,0,1-1.18.72c-12.79,1.52-25.92,8.1-35.91,17.69a60.93,60.93,0,1,0,86.15,1.74c-6.32-6.58-14.3-12.76-22.29-15.95a1.62,1.62,0,0,1-.92-.91l-9.36-23.31a1.65,1.65,0,0,0-2.9-.3Z" transform="translate(-27.17 -11.94)" style="fill:none;stroke:#000;stroke-miterlimit:10;stroke-width:4px"/>
            <path d="M325.07,189.19a1.63,1.63,0,0,1,.58,1.25c0,12.88,5,26.7,13.35,37.73a60.92,60.92,0,1,0,11.84-85.34c-7.27,5.5-14.35,12.7-18.46,20.27a1.63,1.63,0,0,1-1,.8l-24.25,6.56a1.65,1.65,0,0,0-.64,2.85Z" transform="translate(-27.17 -11.94)" style="fill:none;stroke:#000;stroke-miterlimit:10;stroke-width:4px"/>
            <text transform="translate(22.4 60.73)" style="font-size:62px;font-family:MyriadPro-Regular, Myriad Pro;letter-spacing:0.028005292338709676em">.....</text>
            <text transform="translate(109.15 309.38)" style="font-size:62px;font-family:MyriadPro-Regular, Myriad Pro;letter-spacing:0.028005292338709676em">.....</text>
            <text transform="translate(323.35 177.41)" style="font-size:62px;font-family:MyriadPro-Regular, Myriad Pro;letter-spacing:0.028005292338709676em">.....</text>
        </g>
    </symbol>

</svg>