<svg id="Avventura" xmlns="http://www.w3.org/2000/svg" viewBox="0 0 471.52 283.94"><g id="Black"><path id="Frontale_destra" data-name="Frontale destra" d="M395.63,150.38l118,279.84a.58.58,0,0,1-.54.8H467.85a.57.57,0,0,1-.52-.33L394.89,278.45a.54.54,0,0,1-.06-.25V150.54A.42.42,0,0,1,395.63,150.38Z" transform="translate(-43.71 -148.58)" style="fill:none;stroke:#000;stroke-miterlimit:10;stroke-width:3px"/><line x1="232.04" y1="282.44" x2="352.63" y2="282.44" style="fill:none;stroke:#000;stroke-miterlimit:10;stroke-width:3px"/><path id="Parete_laterale" data-name="Parete laterale" d="M45.24,430.71C49.63,423.42,129.61,289.47,161,151a.2.2,0,0,1,.2-.16l233.46-.75a.1.1,0,0,1,.1.13c-1.26,5-41.09,163.22-119.24,280.81H45.42A.21.21,0,0,1,45.24,430.71Z" transform="translate(-43.71 -148.58)" style="fill:none;stroke:#000;stroke-miterlimit:10;stroke-width:3px"/></g><g id="Orange"><path d="M207.5,229h78.73a2.73,2.73,0,0,1,2.67,3.33c-1.76,7.86-7.34,28.05-20.65,43.11a6,6,0,0,1-4.53,2.06h-79a2.08,2.08,0,0,1-1.77-3.17c4.22-6.83,14-23.76,19.27-41.39A5.47,5.47,0,0,1,207.5,229Z" transform="translate(-43.71 -148.58)" style="fill:#ff931e;stroke:#000;stroke-miterlimit:10;stroke-width:3px"/><path d="M394.42,430.11c-2-4.94-15.42-30.52-67.16-27.29l67.57-125.28V430.09C394.83,430.26,394.48,430.26,394.42,430.11Z" transform="translate(-43.71 -148.58)" style="fill:#ff931e;stroke:#000;stroke-miterlimit:10;stroke-width:3px"/></g></svg>