<?xml version="1.0" standalone="no"?>
<!DOCTYPE svg PUBLIC "-//W3C//DTD SVG 20010904//EN"
 "http://www.w3.org/TR/2001/REC-SVG-20010904/DTD/svg10.dtd">
<svg version="1.0" xmlns="http://www.w3.org/2000/svg"
 width="612.000000pt" height="368.000000pt" viewBox="0 0 612.000000 368.000000"
 preserveAspectRatio="xMidYMid meet">

<g transform="translate(0.000000,368.000000) scale(0.100000,-0.100000)"
fill="#000000" stroke="none">
<path d="M3026 3108 c-36 -50 -5 -118 52 -118 16 0 36 8 45 18 21 23 22 86 1
106 -24 24 -80 20 -98 -6z m78 -11 c27 -20 18 -69 -14 -77 -39 -10 -50 -1 -50
40 0 48 28 64 64 37z"/>
<path d="M2053 3095 c-60 -30 -69 -40 -78 -80 l-7 -30 22 33 c12 18 41 44 65
57 40 24 48 25 219 25 l177 0 -3 -165 -3 -166 -127 -124 c-70 -69 -129 -125
-132 -125 -4 0 -6 29 -6 64 0 36 -5 77 -11 93 -6 15 -48 67 -95 114 -52 54
-85 95 -86 110 -6 84 -9 91 -18 39 -10 -58 1 -77 90 -165 39 -38 76 -79 82
-90 6 -11 14 -58 17 -104 4 -58 10 -86 19 -89 8 -2 74 56 153 134 l138 139 -2
175 -2 175 -180 3 c-176 2 -181 2 -232 -23z"/>
<path d="M1778 2963 c-10 -3 -18 -8 -18 -11 0 -4 33 -40 73 -79 86 -86 98 -85
98 7 1 49 -3 67 -16 76 -16 12 -100 16 -137 7z m110 -18 c20 -5 22 -11 22 -62
l0 -56 -59 54 c-32 30 -59 56 -60 59 -1 7 70 11 97 5z"/>
<path d="M4070 2903 c-8 -3 -41 -30 -72 -59 l-57 -54 -131 0 c-89 0 -141 -4
-163 -14 -18 -7 -65 -48 -104 -89 -79 -82 -113 -98 -160 -75 -27 13 -28 17
-33 101 -5 82 -7 89 -38 120 l-32 32 -110 0 -110 0 -90 -90 c-49 -49 -90 -98
-90 -107 0 -10 16 -36 36 -58 53 -59 75 -55 159 30 38 39 77 70 86 70 18 0 49
-31 49 -49 0 -16 -95 -121 -124 -138 -11 -7 -52 -12 -89 -13 -81 0 -96 -7
-164 -73 -51 -49 -55 -51 -124 -58 -44 -4 -75 -12 -80 -20 -5 -8 -9 -37 -9
-66 0 -44 4 -55 28 -73 22 -18 37 -21 85 -18 48 4 63 10 90 36 74 71 120 65
213 -29 70 -70 104 -85 132 -57 23 23 11 52 -49 115 -50 52 -59 66 -49 78 16
19 32 10 90 -49 51 -53 81 -59 106 -21 14 22 15 30 5 53 -12 25 -10 29 20 54
28 24 42 28 94 28 70 0 100 -16 110 -60 13 -60 3 -69 -88 -72 -80 -3 -82 -4
-85 -29 -2 -19 4 -33 24 -48 15 -11 33 -21 40 -21 27 0 16 -59 -16 -92 l-30
-30 -123 4 c-123 3 -124 3 -161 35 -20 18 -47 35 -60 39 -13 3 -94 4 -180 2
l-157 -3 -74 -76 -75 -76 0 -107 c0 -59 5 -117 11 -129 16 -32 119 -136 151
-153 18 -9 61 -14 125 -15 99 0 134 -7 135 -24 0 -6 4 -20 9 -33 5 -13 9 -128
9 -257 l0 -233 28 -33 c89 -107 108 -119 196 -119 l69 0 93 96 c95 100 104
117 104 203 0 27 12 45 69 105 38 39 74 84 80 99 6 16 11 69 11 120 l0 91 52
48 c57 53 55 68 -7 68 -25 0 -47 17 -124 94 -64 64 -92 99 -89 112 7 38 38 27
103 -35 35 -34 69 -61 75 -61 22 0 160 142 160 165 0 26 -39 65 -64 65 -10 0
-29 -9 -43 -20 -24 -19 -26 -19 -48 -2 -13 9 -29 26 -35 36 -27 42 50 61 211
54 100 -5 101 -5 137 -42 l37 -36 3 -121 4 -121 75 -79 c42 -44 84 -79 94 -79
17 0 19 8 19 73 0 52 5 79 18 98 21 31 106 109 119 109 5 0 24 -16 43 -35 32
-33 34 -39 38 -120 4 -76 7 -85 24 -85 10 0 51 31 91 70 80 78 85 80 188 53
88 -22 99 -17 99 50 0 89 10 114 66 178 l54 60 0 132 0 132 -45 52 c-25 28
-45 56 -45 61 0 5 18 26 40 46 l40 36 210 0 c157 0 219 4 243 14 18 7 74 57
126 110 80 82 92 98 81 111 -12 14 -57 16 -361 14 -274 -2 -351 1 -364 11 -22
18 -32 3 -12 -18 16 -15 52 -17 360 -20 188 -2 343 -5 346 -8 2 -2 -37 -45
-88 -94 l-92 -90 -209 0 c-123 0 -220 -4 -237 -11 -40 -15 -103 -79 -103 -105
0 -13 19 -44 45 -71 l44 -48 1 -123 0 -123 -49 -52 c-61 -64 -71 -90 -71 -173
0 -41 -4 -64 -11 -64 -7 0 -43 9 -82 21 -40 12 -80 18 -95 14 -14 -3 -58 -38
-99 -77 l-73 -71 0 66 c0 36 -4 76 -9 89 -14 36 -71 88 -96 88 -27 0 -119 -79
-140 -121 -8 -15 -15 -55 -15 -89 0 -33 -4 -60 -8 -60 -11 0 -118 111 -131
137 -6 12 -11 69 -11 128 l0 106 -44 47 -45 47 -139 3 c-167 4 -212 -8 -212
-56 0 -22 10 -39 35 -61 42 -36 58 -38 92 -11 27 21 58 14 70 -16 7 -18 -113
-144 -136 -144 -8 0 -42 27 -77 60 -67 64 -82 70 -107 42 -34 -37 -22 -63 71
-155 48 -48 93 -87 100 -87 6 0 12 -4 12 -10 0 -5 12 -10 26 -10 26 0 25 0
-15 -46 -44 -50 -52 -83 -48 -190 l2 -61 -60 -67 c-97 -108 -105 -122 -105
-184 l0 -56 -93 -93 -93 -93 -59 0 -58 0 -69 68 -68 69 0 247 0 248 -34 34
c-34 34 -35 34 -128 34 -106 0 -128 8 -195 73 -73 70 -83 92 -83 191 0 100 5
113 69 179 70 73 81 77 234 77 125 0 197 -11 197 -30 0 -5 15 -18 34 -29 29
-18 49 -21 160 -21 147 0 166 7 191 75 21 54 13 84 -26 92 -32 6 -54 27 -44
43 3 5 39 10 79 10 43 0 77 5 84 12 22 22 14 94 -14 127 -25 30 -29 31 -104
31 -64 0 -82 -4 -106 -22 -42 -32 -45 -38 -38 -84 9 -66 -16 -65 -87 3 -54 52
-62 56 -87 47 -48 -17 -41 -48 27 -119 41 -43 59 -69 55 -79 -11 -29 -34 -17
-114 59 -70 66 -83 75 -117 75 -37 0 -56 -10 -132 -65 -36 -26 -73 -31 -115
-15 -24 9 -26 15 -26 65 l0 55 51 0 c61 0 78 8 148 72 67 61 84 68 173 68 l71
0 68 71 c81 84 87 112 38 153 -17 14 -35 26 -41 26 -6 0 -45 -34 -87 -75 -43
-41 -82 -75 -87 -75 -6 0 -27 18 -49 40 l-39 40 81 79 c45 44 90 84 102 90 11
6 53 11 94 11 60 0 80 -4 108 -23 39 -26 47 -48 48 -139 1 -59 4 -69 27 -87
34 -27 87 -27 129 -1 18 11 61 51 97 90 l65 70 131 0 c72 0 143 5 159 11 15 5
52 33 81 62 l53 52 319 0 319 0 39 -38 c26 -26 42 -35 47 -27 4 6 5 12 4 13
-2 2 -23 19 -47 40 l-42 37 -313 -1 c-171 0 -319 -3 -327 -6z"/>
<path d="M1557 2863 l-37 -38 -449 -5 -449 -5 -26 -24 c-64 -60 -88 -190 -45
-244 20 -26 21 -27 182 -29 l162 -3 -2 -54 c0 -34 -6 -59 -15 -65 -35 -27 -48
-61 -48 -129 l0 -69 58 -61 c33 -34 100 -117 150 -184 50 -67 102 -129 114
-137 12 -9 39 -16 60 -16 35 0 38 -2 38 -30 0 -18 11 -42 30 -63 17 -19 30
-41 30 -48 0 -8 -18 -30 -40 -50 l-40 -37 0 -99 c0 -94 7 -123 39 -153 3 -3
42 -43 86 -88 l80 -82 5 -213 5 -213 48 -56 c26 -31 60 -61 75 -67 16 -7 63
-11 108 -9 95 4 105 18 50 78 -33 37 -36 45 -36 102 l0 61 129 131 c72 72 135
144 140 159 6 16 11 51 11 78 0 46 4 53 55 109 63 68 67 80 63 175 l-3 70 -76
5 c-82 5 -83 6 -167 85 l-43 40 -175 5 -176 5 -34 37 c-31 34 -34 43 -34 99 0
85 -10 99 -70 99 -41 0 -52 4 -65 24 -9 14 -15 37 -13 53 3 28 4 28 81 31 63
2 77 0 77 -12 0 -22 42 -66 67 -71 28 -5 43 20 43 69 0 42 23 71 141 177 75
67 83 72 137 78 l57 6 3 53 3 52 78 0 c46 0 82 5 89 12 7 7 12 45 12 99 0 95
-13 125 -70 154 -38 20 -232 21 -248 2 -6 -7 -12 -37 -14 -67 -3 -48 -6 -55
-25 -58 -16 -2 -36 10 -68 43 -25 26 -45 50 -45 55 0 4 34 43 75 85 46 48 75
86 75 99 0 27 -59 86 -86 86 -10 0 -36 -17 -57 -37z m95 -10 c15 -15 28 -32
28 -38 0 -6 -34 -44 -75 -85 -91 -91 -94 -104 -26 -171 40 -41 54 -49 84 -49
41 0 45 7 49 90 l3 45 98 3 c86 2 103 0 133 -19 47 -29 54 -46 54 -133 l0 -76
-64 0 c-36 0 -76 -4 -90 -10 -23 -8 -26 -15 -26 -60 l0 -50 -46 0 c-59 0 -73
-8 -174 -103 -99 -93 -120 -121 -120 -162 -1 -67 -45 -72 -62 -7 l-9 32 -83 0
c-113 0 -116 -2 -116 -61 0 -49 22 -87 53 -91 6 0 23 -2 37 -3 14 -2 30 -3 36
-4 7 -1 13 -28 16 -70 2 -49 9 -75 22 -90 10 -11 22 -19 26 -18 4 1 9 -2 10
-8 1 -5 9 -18 17 -27 14 -16 36 -18 169 -18 84 0 165 -5 180 -10 15 -6 52 -33
82 -61 66 -61 86 -69 159 -69 l55 0 -4 -69 c-3 -65 -6 -70 -54 -127 -67 -78
-74 -92 -74 -160 l0 -57 -135 -137 -135 -137 0 -67 c0 -73 17 -118 51 -137 37
-19 6 -32 -70 -27 -68 3 -72 5 -117 48 -73 72 -74 75 -74 292 0 152 -3 198
-14 214 -8 11 -52 60 -98 108 -46 49 -86 96 -90 105 -11 27 -9 161 3 184 6 12
26 36 45 54 19 18 34 36 34 41 0 5 -12 22 -26 37 -29 32 -44 65 -44 101 0 20
-5 24 -32 24 -65 0 -78 11 -170 134 -50 66 -117 148 -149 182 -32 34 -61 73
-65 88 -12 51 2 115 32 147 26 27 29 37 29 97 l0 67 -165 5 c-91 3 -171 9
-177 13 -9 5 -13 34 -13 81 0 67 3 77 31 112 17 21 36 42 42 46 7 4 207 8 445
8 469 0 470 0 506 54 21 33 33 33 68 -1z"/>
<path d="M2626 2664 c-30 -29 -10 -94 28 -94 21 0 36 23 36 55 0 50 -33 71
-64 39z m39 -54 c-4 -11 -11 -18 -16 -15 -11 7 -12 48 -2 59 11 11 25 -23 18
-44z"/>
<path d="M2735 2563 c-58 -74 -57 -97 5 -101 55 -4 70 13 70 79 0 52 -7 79
-21 79 -5 0 -29 -26 -54 -57z m45 -38 c0 -45 0 -45 -35 -45 -19 0 -35 3 -35 6
0 7 60 84 66 84 2 0 4 -20 4 -45z"/>
<path d="M4855 1810 c-10 -44 3 -87 32 -110 42 -33 113 -23 113 16 0 20 -101
124 -120 124 -12 0 -21 -10 -25 -30z m119 -102 c-10 -15 -54 -8 -74 12 -14 14
-20 33 -20 63 l1 42 49 -55 c27 -30 46 -58 44 -62z"/>
<path d="M4641 1569 c-61 -66 -101 -117 -99 -127 3 -14 19 -17 105 -20 94 -2
103 -1 113 18 14 26 9 232 -6 237 -5 2 -56 -47 -113 -108z m109 -6 c0 -126 2
-123 -96 -123 -46 0 -84 4 -84 9 0 12 162 189 173 190 4 1 7 -34 7 -76z"/>
<path d="M4287 1512 c-33 -36 -21 -63 66 -150 45 -45 90 -82 100 -82 23 0 67
44 67 67 0 10 -37 55 -83 101 -88 87 -118 100 -150 64z m130 -74 c77 -76 88
-104 52 -126 -19 -12 -27 -7 -102 67 -77 75 -80 80 -69 105 6 14 19 26 29 26
10 0 50 -33 90 -72z"/>
<path d="M4785 1229 c-53 -54 -70 -62 -135 -65 -30 -1 -65 -2 -77 -3 -25 -1
-151 -110 -171 -147 -9 -17 -12 -63 -10 -155 3 -108 6 -134 19 -142 12 -8 46
2 135 37 68 27 120 43 122 37 2 -5 12 -21 23 -35 16 -20 30 -26 59 -26 22 0
50 -5 64 -11 20 -10 30 -8 59 10 50 31 71 26 132 -29 30 -27 60 -50 66 -50 6
0 29 17 50 39 l39 39 0 139 0 139 -44 51 c-33 39 -45 62 -50 99 -8 59 -49 116
-79 112 -18 -2 -23 -11 -27 -47 -3 -25 -12 -48 -21 -54 -21 -13 -73 12 -77 38
-12 79 -21 82 -77 24z m230 -6 c15 -17 24 -41 25 -61 0 -39 19 -79 50 -107 42
-38 50 -68 50 -188 0 -102 -2 -118 -23 -148 -32 -48 -51 -47 -107 5 -27 25
-55 47 -62 47 -29 3 -55 -4 -83 -21 -26 -15 -34 -16 -60 -4 -16 7 -45 13 -63
14 -25 0 -35 6 -42 25 -5 14 -17 28 -25 32 -9 3 -65 -13 -124 -36 -59 -22
-115 -41 -124 -41 -15 0 -17 15 -17 127 l0 127 73 73 73 73 73 0 c83 0 100 7
159 63 40 40 42 40 42 17 1 -45 44 -80 99 -80 36 0 51 22 51 74 0 20 2 36 5
36 3 0 17 -12 30 -27z"/>
<path d="M3612 1180 c-22 -9 -23 -13 -20 -131 l3 -122 27 -9 c19 -7 36 -5 55
4 28 13 28 14 31 123 3 102 1 111 -19 128 -23 19 -42 20 -77 7z m73 -130 l0
-105 -35 0 -35 0 -3 94 c-1 52 0 101 3 108 3 9 17 13 37 11 l33 -3 0 -105z"/>
<path d="M5373 537 c-121 -121 -132 -143 -93 -185 36 -39 57 -28 177 90 89 88
113 118 113 139 0 29 -40 69 -68 69 -9 0 -67 -51 -129 -113z m175 49 c3 -16
-132 -163 -196 -212 -32 -25 -34 -25 -53 -8 -10 9 -19 22 -19 29 0 6 50 62
112 123 104 105 113 111 132 98 12 -7 22 -21 24 -30z"/>
</g>
</svg>
