<svg version="1.1" id="Layer_1" xmlns="http://www.w3.org/2000/svg" xmlns:xlink="http://www.w3.org/1999/xlink" x="0px" y="0px"
	 width="100%" viewBox="0 0 612 368" enable-background="new 0 0 612 368" xml:space="preserve">
<path fill="none" opacity="1.000000" stroke="#000000" stroke-linecap="round" stroke-linejoin="round" stroke-width="3.000000"
	d="
M479.500000,86.500000 
	C475.003876,79.879349 468.607300,78.643875 460.996063,78.863937 
	C445.342499,79.316528 429.666473,79.041718 414.000122,78.970879 
	C410.047638,78.953011 406.636597,79.804352 403.971802,82.976311 
	C402.461395,84.774231 400.600739,86.273277 399.015259,88.013901 
	C396.568665,90.699905 393.471497,91.518494 389.999969,91.505989 
	C384.000061,91.484375 377.998383,91.585091 372.000549,91.471626 
	C367.624329,91.388840 363.969940,92.578476 360.964508,95.968536 
	C357.212982,100.200256 353.695160,104.682953 349.011780,108.016533 
	C346.372589,109.895058 343.695648,110.379379 340.482025,109.571503 
	C336.609467,108.597984 334.566925,106.700302 334.961182,102.496361 
	C335.178131,100.183372 335.010590,97.833282 334.998047,95.500008 
	C334.956726,87.809181 330.190826,83.041054 322.500000,83.002625 
	C319.333405,82.986801 316.138916,83.256615 313.008820,82.918404 
	C310.527588,82.650314 307.803955,83.482689 306.662292,84.657684 
	C301.079956,90.403076 294.567932,95.287849 290.143829,101.464859 
	C289.670105,103.331276 290.839264,103.794014 291.512756,104.487625 
	C299.284637,112.491783 298.285065,114.188591 307.009888,105.009407 
	C309.444885,102.447609 311.879456,99.861076 314.543030,97.549553 
	C316.276031,96.045624 318.175842,96.260803 320.039032,97.957115 
	C322.185760,99.911560 324.658752,102.970749 322.795929,104.791191 
	C318.742157,108.752777 316.095795,113.919975 311.118225,117.180481 
	C307.839203,119.328377 304.693420,119.157097 301.508575,118.895538 
	C294.905640,118.353264 289.601929,120.523941 285.537201,125.530197 
	C281.337891,130.702164 276.339386,133.435913 269.493286,132.551987 
	C265.612640,132.050934 264.060608,134.066757 264.446228,138.005264 
	C264.804443,141.663910 263.262482,146.071167 268.508514,147.468002 
	C273.066498,148.681656 277.603973,148.507523 281.464203,145.454727 
	C283.792542,143.613403 285.531494,141.060745 288.494232,139.984100 
	C292.745636,138.439117 296.623993,138.513748 300.010834,141.989441 
	C303.629425,145.702942 307.188843,149.497192 311.070465,152.920090 
	C312.643402,154.307129 315.146149,155.149078 316.954102,152.962067 
	C318.421021,151.187637 318.372009,149.208481 316.510010,147.489151 
	C315.125732,146.210983 313.833344,144.833344 312.500000,143.500000 
	C310.833344,141.833328 309.133667,140.198059 307.509918,138.490555 
	C306.083282,136.990311 305.124634,135.294052 307.019287,133.520599 
	C308.761871,131.889481 310.609314,131.477493 312.514832,133.485931 
	C314.785217,135.878983 317.239563,138.099380 319.476196,140.521957 
	C321.169983,142.356522 323.120148,143.934509 325.442902,142.412842 
	C327.991974,140.742874 328.090942,138.113495 326.506775,135.495895 
	C326.237457,135.050858 326.057465,134.551773 325.880707,134.173050 
	C330.167572,127.954178 339.384491,124.728241 346.000000,126.999992 
	C350.576141,128.571442 353.035309,134.677216 351.614929,139.533615 
	C350.948761,141.811157 349.824707,142.035248 347.999847,142.011475 
	C344.833740,141.970184 341.666626,141.993973 338.500000,142.002350 
	C336.711578,142.007080 334.688049,141.622955 334.017120,144.004822 
	C333.383942,146.252686 335.292603,147.214035 336.513062,148.487473 
	C336.755920,148.740875 337.153564,148.870163 337.502136,148.993973 
	C339.634857,149.751434 342.668915,149.398605 342.494141,152.999710 
	C342.330017,156.380234 341.275665,159.663544 338.920197,161.916550 
	C335.020630,165.646500 311.042755,164.886719 307.056549,160.942841 
	C303.192200,157.119507 298.822784,155.724075 293.497467,155.936249 
	C286.841370,156.201447 280.162292,156.137772 273.502289,155.927261 
	C271.083954,155.850815 268.773193,156.304306 267.063782,157.585114 
	C262.143890,161.271423 257.893921,165.733719 254.025284,170.520432 
	C253.137177,171.619293 252.882278,173.012604 252.968109,174.501831 
	C253.092575,176.661331 253.348969,178.901215 252.942886,180.988892 
	C250.475418,193.674011 258.567993,200.663788 267.006622,207.491821 
	C269.622253,209.608215 272.696106,210.145508 276.001007,210.027924 
	C279.496552,209.903519 283.000000,209.996994 286.500000,210.000641 
	C293.512573,210.007980 296.929138,213.309921 296.975128,220.500153 
	C297.061462,233.999603 297.063538,247.500519 296.953033,260.999603 
	C296.927063,264.172638 297.620941,266.792572 299.973572,269.027832 
	C301.935822,270.892120 303.654633,273.011169 305.502289,274.997864 
	C310.720398,280.608643 320.960632,282.480011 326.391541,277.872162 
	C332.205841,272.939056 337.482697,267.258362 342.314514,261.348358 
	C343.836487,259.486816 343.452972,255.830795 343.427979,253.000641 
	C343.396362,249.416077 344.481903,246.513245 346.983887,243.984070 
	C350.216675,240.716141 353.298065,237.298904 356.510162,234.009949 
	C359.542084,230.905472 360.603943,227.065475 359.930695,223.011505 
	C358.435608,214.008759 359.750488,206.330505 368.482269,201.468170 
	C368.623962,201.389267 368.500000,200.833328 368.500000,199.979660 
	C366.945251,198.218948 364.554810,199.280777 362.500000,199.000000 
"/>
<path fill="none" opacity="1.000000" stroke="#000000" stroke-linecap="round" stroke-linejoin="round" stroke-width="3.000000"
	d="
M141.000000,196.000000 
	C136.845001,192.871597 137.512985,188.332062 137.503586,183.999985 
	C137.489685,177.588684 137.065704,177.120972 131.000000,177.000000 
	C124.764832,176.875656 121.709557,173.025360 122.984467,166.996719 
	C123.460442,164.745926 124.783478,163.914139 127.000626,163.978409 
	C129.998108,164.065308 133.014923,164.187103 135.995972,163.949402 
	C139.223206,163.692047 141.383255,164.258484 142.092941,167.982285 
	C142.537384,170.314362 144.063065,172.365921 146.996643,171.974838 
	C150.352783,171.527420 150.199280,168.841675 149.953247,166.504929 
	C149.445328,161.680847 152.741348,158.922455 155.551025,156.049911 
	C159.174866,152.345001 163.444275,149.253021 166.926178,145.432724 
	C170.834579,141.144485 175.364700,139.376953 181.001068,139.990250 
	C181.659927,140.061935 182.336365,140.034805 182.998001,139.977097 
	C183.177856,139.961395 183.333344,139.666687 184.000000,139.000031 
	C184.000000,136.183350 184.000000,132.816666 184.000000,129.477921 
	C188.909317,127.942513 193.492676,128.485657 197.998734,128.568817 
	C201.088211,128.625824 202.278625,127.593369 202.041962,124.496796 
	C201.839340,121.845612 202.000000,119.166664 202.000000,116.500000 
	C202.000000,107.641884 197.358109,103.000000 188.500000,103.000000 
	C184.166672,103.000008 179.829376,103.113724 175.501282,102.963074 
	C172.193970,102.847954 170.747421,104.195740 170.979691,107.501427 
	C171.096222,109.159904 171.043442,110.834694 170.991364,112.499733 
	C170.865173,116.534683 167.891571,118.367592 164.507324,116.486824 
	C163.460220,115.904907 162.442947,115.237808 161.508987,114.488785 
	C153.712753,108.236366 153.527222,105.691734 160.518982,98.518501 
	C163.067734,95.903580 165.998260,93.649384 168.443924,90.949203 
	C170.168472,89.045189 171.228302,86.703110 168.514648,84.482101 
	C167.425659,83.590820 166.460098,82.536392 165.508240,81.492485 
	C163.481262,79.269424 161.203064,79.055695 159.558640,81.538834 
	C155.492081,87.679520 149.579865,88.130569 142.999374,88.077728 
	C118.667610,87.882332 94.333336,88.000000 70.000000,88.000000 
	C62.530468,88.000000 56.221523,93.873543 55.501953,101.500183 
	C55.486370,101.665375 55.494949,101.833511 55.500721,101.999977 
	C55.868397,112.600365 52.544399,116.902390 68.503006,116.056709 
	C74.984802,115.713219 81.501770,116.089142 87.999207,115.959999 
	C90.964806,115.901054 92.117340,117.034554 92.041443,120.001060 
	C91.927460,124.456512 91.719536,128.611145 88.066368,132.070099 
	C83.773880,136.134369 83.348419,147.394562 87.574158,151.422195 
	C97.466446,160.850708 104.970680,172.115189 113.028976,182.978500 
	C116.019371,187.009811 116.920609,187.204239 126.944206,188.560089 
	C126.618980,193.285751 128.130844,197.390305 131.979370,200.525330 
	C134.330154,202.440292 133.930862,204.342300 131.503906,206.005692 
	C121.992470,212.524658 125.176331,222.119720 125.533958,230.998627 
	C125.601357,232.671982 126.835236,233.828812 127.976433,235.022537 
	C132.865067,240.136322 137.529297,245.472229 142.555969,250.443405 
	C145.205551,253.063721 146.053528,255.968155 146.027298,259.500214 
	C145.950546,269.832977 145.979889,280.166718 146.006195,290.499969 
	C146.028198,299.143158 155.863556,308.957703 164.500015,308.998077 
	C167.166626,309.010529 169.833893,309.032257 172.499756,308.985626 
	C173.732941,308.964111 175.325333,309.548279 175.951981,307.980804 
	C176.527893,306.540222 175.681366,305.354584 174.496170,304.505341 
	C170.721039,301.800293 169.026840,298.365662 168.837524,293.506317 
	C168.601227,287.441376 170.289719,282.959015 174.915390,278.903503 
	C180.928284,273.631714 186.215424,267.541504 192.045944,262.048767 
	C195.336899,258.948517 196.859375,255.361603 196.465652,251.003098 
	C196.005920,245.913773 197.427139,241.676224 201.506699,238.508621 
	C209.466034,232.328506 210.115143,224.009476 208.500992,214.994965 
	C207.816696,214.083191 206.795929,214.415573 206.005859,214.537872 
	C197.278442,215.889023 190.424576,212.618500 185.023987,205.980484 
	C181.725021,201.925659 177.436768,200.882004 172.499435,200.968002 
	C165.334946,201.092819 158.164551,200.897797 151.000977,201.046783 
	C147.824783,201.112839 145.117462,200.464554 143.000000,198.000000 
"/>
<path fill="none" opacity="1.000000" stroke="#000000" stroke-linecap="round" stroke-linejoin="round" stroke-width="3.000000"
	d="
M482.000000,88.000000 
	C483.763000,90.430283 486.359192,90.504547 489.000000,90.503662 
	C509.000000,90.496956 529.000000,90.500000 549.000000,90.500000 
	C550.000000,90.500000 551.000671,90.524269 551.999878,90.495407 
	C554.876770,90.412338 555.473145,92.298447 553.918701,93.922188 
	C548.461487,99.622688 542.716858,105.053238 536.974487,110.472977 
	C534.775269,112.548630 531.856201,112.520218 528.999939,112.512428 
	C517.833374,112.481979 506.658478,112.758286 495.502991,112.405273 
	C488.564911,112.185730 485.071747,116.920059 481.096771,121.092186 
	C480.647888,121.563370 480.467712,123.423561 481.489716,124.509674 
	C482.864471,125.970695 483.979431,127.739975 485.535645,128.954300 
	C489.928162,132.381805 490.441620,136.946411 490.042908,142.003387 
	C489.807831,144.984848 489.730133,148.029678 490.056183,150.993820 
	C490.734436,157.159927 489.178497,162.159088 484.035126,166.046494 
	C479.147278,169.740738 477.690552,175.057037 477.979645,181.000992 
	C478.101501,183.506073 478.000000,186.022018 478.000000,188.678894 
	C473.182556,189.737961 469.381561,187.587769 465.527283,186.410675 
	C460.863403,184.986343 457.109436,185.334106 453.431183,188.929611 
	C449.473083,192.798737 446.122589,197.419586 440.866119,200.359711 
	C439.158112,196.643677 439.980530,192.980911 440.090179,189.502838 
	C440.291962,183.105698 435.924255,179.702209 431.900665,176.111298 
	C431.240173,175.521805 429.251465,175.593552 427.944214,176.946060 
	C425.817780,179.146042 423.253540,180.915237 421.018524,183.019684 
	C417.595917,186.242447 415.476257,189.998611 415.931488,195.006226 
	C416.186127,197.807297 416.373566,200.708252 415.496887,203.498062 
	C412.565674,204.063461 411.551788,201.474289 410.037018,199.962891 
	C396.415741,186.371643 398.593628,190.862366 399.274445,173.510773 
	C399.674652,163.311066 392.236511,154.887024 381.492767,155.925171 
	C376.869293,156.371933 372.166656,156.000000 367.500000,156.000000 
	C366.333344,156.000000 364.965851,155.605087 364.038849,156.076431 
	C361.576416,157.328522 357.667603,156.931686 357.113800,160.517578 
	C356.640045,163.584976 359.166992,165.405792 361.497406,167.003769 
	C362.492889,167.686386 363.459900,168.410522 364.576782,169.214325 
	C365.914001,168.289154 367.336182,167.533463 368.475555,166.473709 
	C371.772888,163.406845 373.861420,165.760468 375.995453,168.004333 
	C378.293243,170.420425 376.876923,172.203796 375.013519,174.013916 
	C371.632507,177.298172 368.336090,180.669449 364.998932,183.998917 
	C363.004700,185.988571 360.995789,185.988113 359.001038,183.998978 
	C356.163696,181.169647 353.366302,178.299271 350.487610,175.512802 
	C348.765717,173.846100 346.879700,172.236588 344.512726,174.513245 
	C342.149597,176.786209 342.116577,179.250839 344.515503,181.483337 
	C350.385010,186.945618 355.304108,193.414825 362.000000,198.000000 
"/>
<path fill="none" opacity="1.000000" stroke="#000000" stroke-linecap="round" stroke-linejoin="round" stroke-width="3.000000"
	d="
M462.000000,253.500000 
	C451.989624,254.352188 447.644653,262.483032 441.938080,268.945312 
	C440.718811,270.326050 441.040833,271.632080 441.027435,273.000275 
	C440.965302,279.333008 440.972137,285.666809 441.009430,291.999939 
	C441.035828,296.483307 442.915863,297.829102 446.981201,295.959137 
	C452.850159,293.259583 458.956299,291.213501 464.936249,288.839417 
	C467.653107,287.760773 468.669739,287.716949 469.527039,290.491638 
	C470.493774,293.620575 472.665070,294.691101 476.002686,294.607971 
	C478.937744,294.534882 482.019531,294.966919 484.299011,297.126801 
	C486.094116,296.141205 487.546356,294.973663 489.068451,294.122406 
	C492.356689,292.283508 495.949066,292.196533 498.986237,295.014832 
	C501.058105,296.937378 503.010437,298.989716 504.996277,301.003662 
	C506.293396,302.319153 507.749695,303.141815 509.487823,301.981750 
	C513.061035,299.596954 515.949036,296.672058 515.986450,291.999878 
	C516.039795,285.333649 515.963440,278.666382 516.015259,272.000122 
	C516.041687,268.609406 514.317566,265.990417 511.943573,264.069763 
	C508.007355,260.885254 506.014496,256.759125 506.135986,252.003479 
	C506.239380,247.955948 503.240204,246.139511 501.370117,243.595474 
	C500.359833,242.221146 498.240021,242.344940 498.003998,245.000351 
	C497.974609,245.331070 498.006073,245.666794 497.999054,245.999985 
	C497.926208,249.468597 498.877716,253.637726 493.497681,253.961182 
	C488.881805,254.238678 485.960785,251.279602 485.576874,245.994415 
	C485.496429,244.886810 484.458862,244.483124 484.473511,242.512817 
	C478.094086,248.873642 472.705078,256.484528 462.500000,253.500000 
"/>
<path fill="none" opacity="1.000000" stroke="#000000" stroke-linecap="round" stroke-linejoin="round" stroke-width="3.000000"
	d="
M198.500000,71.500000 
	C197.826828,78.566597 199.464371,84.523254 205.949982,88.579964 
	C207.777481,89.723053 208.789413,92.107521 210.537979,93.450554 
	C216.731155,98.207344 218.584915,104.538933 218.057678,112.004074 
	C217.905334,114.161102 217.339203,116.537560 218.983170,118.502151 
	C221.279984,118.209511 222.538193,116.449364 223.995941,114.995934 
	C230.338715,108.672066 236.548996,102.208519 243.063110,96.066933 
	C245.379227,93.883270 246.838242,91.363312 246.907059,88.497765 
	C247.147171,78.500755 247.000000,68.494446 247.000000,58.000000 
	C234.838089,58.000000 223.169052,58.000000 211.500000,58.000000 
"/>
<path fill="none" opacity="1.000000" stroke="#000000" stroke-linecap="round" stroke-linejoin="round" stroke-width="3.000000"
	d="
M475.500000,203.500000 
	C468.331146,209.744064 462.016541,216.760986 455.879761,224.317947 
	C458.054749,226.781052 460.438660,225.879364 462.501495,225.963516 
	C465.829285,226.099274 469.212402,225.661057 472.486084,226.103012 
	C475.304626,226.483505 476.854980,224.446304 476.821106,223.004196 
	C476.668518,216.506317 478.194946,209.904526 476.000000,203.500000 
"/>
<path fill="none" opacity="1.000000" stroke="#000000" stroke-linecap="round" stroke-linejoin="round" stroke-width="3.000000"
	d="
M279.000000,110.000000 
	C275.554749,111.999275 274.018829,115.691528 271.583832,118.570885 
	C270.105835,120.318596 270.648682,121.808929 273.494843,122.058617 
	C279.796570,122.611450 280.517761,122.077332 280.487732,115.500053 
	C280.480072,113.825310 280.801270,112.103203 280.000000,110.500000 
"/>
<path fill="none" opacity="1.000000" stroke="#000000" stroke-linecap="round" stroke-linejoin="round" stroke-width="3.000000"
	d="
M193.000000,76.500000 
	C193.258545,73.514053 190.718430,73.313034 188.987411,73.104378 
	C185.828491,72.723602 182.613541,73.162041 179.500000,74.000000 
"/>
<path fill="none" opacity="1.000000" stroke="#000000" stroke-linecap="round" stroke-linejoin="round" stroke-width="3.000000"
	d="
M177.500000,74.000000 
	C179.833328,76.166672 182.199738,78.299049 184.490860,80.509483 
	C186.865250,82.800262 189.166656,85.166679 191.586197,87.586220 
	C194.119812,84.853302 192.655609,81.525932 193.000000,78.500000 
"/>
<path fill="none" opacity="1.000000" stroke="#000000" stroke-linecap="round" stroke-linejoin="round" stroke-width="2.000000"
	d="
M208.500000,59.000000 
	C204.496780,61.461521 200.115158,63.524719 198.500000,68.500000 
"/>
<path fill="none" opacity="1.000000" stroke="#000000" stroke-linecap="round" stroke-linejoin="round" stroke-width="3.000000"
	d="
M551.500000,305.000000 
	C546.409119,307.253296 543.800476,312.309265 539.597595,315.623749 
	C536.879944,317.766968 534.682068,320.656799 532.056702,323.061920 
	C526.376709,328.265503 526.561279,329.773590 532.629944,335.114349 
	C535.617920,334.260193 537.835815,332.175629 540.002197,330.002167 
	C544.494873,325.494873 549.016113,321.015930 553.495911,316.495880 
	C558.860596,311.082916 558.631531,309.416321 552.000000,305.000000 
"/>
<path fill="none" opacity="1.000000" stroke="#000000" stroke-linecap="round" stroke-linejoin="round" stroke-width="3.000000"
	d="
M489.500000,186.000000 
	C486.467377,190.217468 486.896851,195.585770 490.500031,198.499969 
	C493.452057,200.887573 496.861237,200.528732 500.016968,197.483627 
	C497.207336,193.196503 493.686707,189.526062 490.000000,186.000000 
"/>
<path fill="none" opacity="1.000000" stroke="#000000" stroke-linecap="round" stroke-linejoin="round" stroke-width="3.000000"
	d="
M365.000000,251.500000 
	C361.778320,251.959976 360.755920,253.780869 360.929291,257.003815 
	C361.197479,261.989380 361.160858,267.006958 360.944702,271.997620 
	C360.795258,275.447510 362.910187,276.516632 365.494141,276.385010 
	C368.044525,276.255096 371.196198,276.209869 371.045898,271.998352 
	C370.855835,266.671814 370.956635,261.332886 371.014465,256.000153 
	C371.056610,252.116684 368.510742,251.560959 365.500000,251.500000 
"/>
<path fill="none" opacity="1.000000" stroke="#000000" stroke-linecap="round" stroke-linejoin="round" stroke-width="3.000000"
	d="
M432.500000,217.000000 
	C427.804016,221.470505 427.732147,222.688751 432.003448,226.996582 
	C435.820404,230.846146 439.780090,234.561584 443.461517,238.535645 
	C446.070374,241.351852 448.200104,239.308365 449.919312,237.901413 
	C451.910553,236.271866 452.491425,233.659866 450.465454,231.532898 
	C446.077484,226.926193 441.426758,222.569595 437.045044,217.957199 
	C435.747070,216.590866 434.366333,217.201385 433.000000,217.000000 
"/>
<path fill="none" opacity="1.000000" stroke="#000000" stroke-linecap="round" stroke-linejoin="round" stroke-width="3.000000"
	d="
M307.500000,57.000000 
	C303.280945,57.684353 303.476685,60.851265 303.476257,63.999996 
	C303.475922,66.248367 304.235413,68.013412 306.510406,68.445160 
	C308.787140,68.877243 311.148529,69.024521 313.013214,67.012238 
	C314.849945,65.030113 314.255463,62.522133 313.840820,60.533180 
	C313.283600,57.859962 310.773834,56.840103 308.000000,57.000000 
"/>
</svg>