<?xml version="1.0" standalone="no"?>
<!DOCTYPE svg PUBLIC "-//W3C//DTD SVG 20010904//EN"
 "http://www.w3.org/TR/2001/REC-SVG-20010904/DTD/svg10.dtd">
<svg version="1.0" xmlns="http://www.w3.org/2000/svg"
 width="100%" height="50%" viewBox="0 0 1300.000000 1390.000000"
 preserveAspectRatio="xMidYMid meet">
<metadata>
Created by potrace 1.16, written by Peter Selinger 2001-2019
</metadata>
<g transform="translate(0.000000,1390.000000) scale(0.100000,-0.100000)"
fill="orange" stroke="none">
<path d="M8343 11755 c-17 -7 -38 -24 -47 -37 -33 -52 -586 -1351 -586 -1378
0 -73 40 -120 104 -120 80 0 98 21 226 265 219 418 263 501 416 791 166 313
172 330 133 394 -26 42 -41 55 -94 80 -47 23 -107 25 -152 5z"/>
<path d="M4499 11746 c-20 -7 -50 -22 -67 -34 -39 -28 -76 -104 -69 -140 5
-25 48 -110 187 -367 21 -38 129 -241 240 -450 280 -526 268 -504 303 -526 89
-54 188 10 174 112 -3 21 -112 283 -243 581 -130 299 -259 592 -285 652 -59
135 -79 162 -126 175 -48 14 -69 13 -114 -3z"/>
<path d="M6215 9585 c-407 -61 -742 -205 -1045 -448 -432 -348 -708 -833 -785
-1384 -26 -184 -17 -503 19 -671 38 -175 87 -315 171 -487 84 -172 173 -309
309 -479 111 -138 149 -202 212 -357 97 -243 153 -541 190 -1014 15 -187 77
-296 185 -325 210 -55 1756 -59 2039 -4 19 4 52 16 73 27 46 25 100 103 94
134 -2 12 0 24 5 25 15 5 27 79 48 300 39 420 83 635 176 860 61 149 106 226
213 358 279 348 437 688 496 1070 19 121 22 414 5 530 -69 493 -252 880 -581
1224 -182 191 -364 323 -604 441 -170 83 -307 132 -475 169 -275 60 -494 69
-745 31z m534 -280 c842 -120 1499 -794 1591 -1634 17 -152 8 -395 -20 -526
-66 -310 -194 -562 -446 -878 -79 -99 -116 -158 -167 -260 -146 -296 -209
-555 -257 -1066 -12 -123 -25 -232 -30 -242 -15 -28 -182 -34 -915 -34 -671 0
-891 7 -919 28 -11 9 -20 69 -36 242 -47 511 -113 783 -260 1081 -46 91 -87
154 -171 260 -140 176 -208 278 -284 429 -116 228 -173 446 -182 697 -10 269
32 513 131 758 249 618 827 1064 1486 1149 108 14 367 12 479 -4z"/>
<path d="M5928 9025 c-458 -157 -831 -515 -1009 -967 -54 -138 -55 -195 -2
-250 40 -41 95 -54 149 -33 51 19 65 39 110 158 79 207 188 372 341 518 154
145 325 248 524 313 119 39 145 57 165 114 24 71 -3 135 -73 171 -37 19 -104
11 -205 -24z"/>
<path d="M6880 8709 c-30 -5 -57 -14 -61 -21 -4 -6 -10 -41 -13 -77 -4 -36 -9
-86 -12 -111 l-6 -45 -85 -41 -85 -41 -96 58 c-53 33 -102 59 -108 59 -7 0
-40 -30 -73 -66 l-61 -67 22 -36 c12 -20 41 -65 65 -100 l44 -63 -39 -92 -39
-91 -57 -6 c-31 -4 -84 -12 -116 -19 -55 -12 -60 -15 -65 -44 -4 -17 -5 -60
-3 -96 l3 -64 85 -28 c47 -15 95 -27 108 -28 25 0 29 -7 63 -122 l22 -78 -49
-52 c-27 -29 -63 -70 -78 -91 l-29 -37 26 -39 c15 -22 40 -55 57 -75 30 -34
32 -35 68 -21 20 7 71 28 112 47 l76 35 33 -28 c19 -15 53 -38 77 -51 l43 -23
3 -124 3 -125 65 -17 c104 -28 116 -26 142 24 12 23 35 69 50 102 30 66 17 61
168 79 l55 7 68 -86 c37 -47 74 -88 81 -91 8 -3 50 13 94 35 l79 40 -8 49 c-5
26 -18 79 -28 118 l-20 69 67 70 c37 38 72 69 77 68 6 0 43 -8 83 -17 40 -9
90 -16 111 -16 37 0 39 2 64 58 44 99 44 104 -5 146 -24 21 -67 52 -96 69 -48
29 -52 35 -47 61 3 16 5 62 5 102 0 53 4 74 13 74 19 0 188 101 194 116 3 8
-6 49 -19 92 l-24 77 -125 -2 -125 -2 -17 28 c-9 15 -33 49 -55 75 l-38 49 34
84 c18 46 36 98 39 116 4 29 1 35 -39 63 -23 17 -58 39 -77 48 -38 20 -31 24
-146 -86 l-61 -58 -78 20 c-44 11 -87 20 -96 20 -11 0 -20 15 -28 48 -7 26
-25 77 -39 115 -26 66 -27 67 -62 66 -20 -1 -61 -5 -91 -10z m216 -490 c89
-16 162 -55 230 -123 218 -218 156 -565 -125 -704 -72 -36 -79 -37 -180 -37
-86 0 -116 5 -161 23 -245 98 -350 382 -228 614 72 136 221 230 379 237 14 0
52 -4 85 -10z"/>
<path d="M5589 7405 c-52 -19 -119 -54 -119 -63 0 -4 7 -34 15 -67 l14 -60
-33 -35 c-18 -19 -40 -46 -49 -59 -15 -23 -24 -25 -89 -25 l-73 -1 -16 -50
c-9 -27 -19 -66 -23 -85 -6 -36 -6 -36 59 -68 59 -29 65 -35 65 -62 0 -17 5
-51 11 -76 l11 -44 -46 -50 c-42 -45 -46 -52 -35 -72 20 -40 89 -128 100 -128
6 0 36 13 68 29 52 25 59 27 77 13 10 -8 42 -25 70 -38 l51 -24 7 -62 c3 -34
10 -66 14 -70 5 -5 46 -9 91 -10 95 -1 95 -1 112 85 8 41 16 57 28 57 9 0 42
13 73 28 l57 28 53 -33 c28 -18 57 -33 62 -33 17 0 106 101 112 127 5 18 -3
35 -34 72 l-40 47 19 55 c10 30 18 63 19 75 0 16 14 26 63 45 50 19 63 29 65
48 4 27 -15 130 -28 150 -4 8 -32 12 -72 12 l-64 0 -47 65 -47 65 16 58 c9 33
14 66 11 74 -3 8 -39 31 -79 52 l-73 36 -25 -28 c-14 -15 -34 -40 -45 -54 -19
-25 -23 -25 -100 -21 l-80 4 -35 54 c-37 58 -38 59 -91 39z m281 -290 c142
-50 216 -225 151 -358 -43 -88 -149 -157 -241 -157 -92 0 -198 69 -241 157
-24 50 -29 147 -9 198 52 137 203 208 340 160z"/>
<path d="M10790 8730 c-36 -10 -348 -96 -695 -190 -346 -94 -641 -179 -654
-189 -70 -50 -84 -123 -33 -174 54 -53 64 -52 842 97 l705 135 32 35 c89 96
27 285 -97 301 -19 2 -64 -4 -100 -15z"/>
<path d="M2064 8706 c-38 -17 -68 -53 -90 -111 -30 -80 3 -181 68 -210 18 -8
137 -33 263 -55 127 -23 435 -79 686 -126 251 -46 475 -84 498 -84 74 0 131
48 131 112 0 34 -35 85 -70 103 -17 9 -275 81 -573 160 -298 79 -611 162 -695
184 -170 45 -174 46 -218 27z"/>
<path d="M8832 5735 c-67 -57 -51 -128 51 -219 151 -136 1023 -879 1052 -897
84 -53 211 15 241 130 25 96 7 121 -184 258 -53 38 -300 219 -549 401 -248
182 -460 335 -472 341 -37 20 -107 13 -139 -14z"/>
<path d="M4053 5735 c-34 -15 -38 -18 -358 -255 -115 -86 -273 -203 -350 -260
-486 -360 -486 -361 -501 -395 -19 -47 -18 -72 10 -132 42 -89 137 -140 208
-110 18 8 92 65 163 128 72 63 317 277 545 476 228 199 420 370 427 381 38 64
19 142 -42 168 -42 17 -61 17 -102 -1z"/>
<path d="M5465 4297 c-134 -64 -140 -257 -10 -325 89 -46 1355 -61 1929 -23
123 8 142 12 177 35 70 47 101 155 65 225 -19 37 -80 89 -112 97 -15 4 -135 2
-268 -5 -552 -26 -914 -25 -1621 4 -100 5 -137 3 -160 -8z"/>
<path d="M5582 3813 c-102 -67 -109 -220 -13 -291 17 -12 54 -27 83 -32 66
-13 1634 -12 1701 1 92 17 147 83 147 177 0 37 -7 59 -30 93 -55 84 11 79
-973 79 l-873 0 -42 -27z"/>
<path d="M5827 3385 c-71 -24 -61 -74 32 -166 79 -77 173 -128 296 -160 104
-27 410 -38 565 -20 219 26 374 103 471 235 36 49 37 80 2 103 -24 16 -76 17
-681 18 -414 0 -666 -4 -685 -10z"/>
</g>
</svg>
